<svg width="224" height="367" viewBox="0 0 224 367" fill="none" xmlns="http://www.w3.org/2000/svg">
<g filter="url(#filter0_f)">
<ellipse cx="99.9522" cy="349.49" rx="84.9522" ry="13.4895" fill="#C4C4C4" fill-opacity="0.5"/>
</g>
<path d="M46.5147 220.124C44.4015 218.489 40.809 214.851 43.3449 213.379C46.5147 211.54 49.6841 212.153 49.6841 206.635C49.6841 201.116 42.0774 203.569 43.3449 199.89C44.6123 196.211 49.6846 154.516 46.5147 107.916" stroke="black"/>
<path d="M86.3867 257.526C77.3841 268.772 52.4783 293.747 48.5187 298.244C44.559 302.741 51.5593 306.269 52.5992 308.151L60.4833 305.824C64.3807 302.079 81.2488 293.237 86.2901 287.009L100.239 271.01L86.3867 257.526Z" fill="#FFC095"/>
<g filter="url(#filter1_f)">
<ellipse rx="8.97877" ry="1.26276" transform="matrix(-0.36598 0.930623 -0.938512 -0.345247 70.9234 286.937)" fill="#E08F6E" fill-opacity="0.5"/>
</g>
<g filter="url(#filter2_f)">
<ellipse rx="9.04232" ry="1.2542" transform="matrix(-0.590726 0.806872 -0.825066 -0.565036 61.9635 290.914)" fill="#E08F6E" fill-opacity="0.5"/>
</g>
<g filter="url(#filter3_f)">
<ellipse rx="5.17631" ry="1.26147" transform="matrix(-0.408256 0.912867 -0.922527 -0.385932 76.6644 273.762)" fill="#F0946E"/>
</g>
<path d="M118.551 277.761C120.453 291.863 124.383 321.54 124.89 327.427C125.398 333.313 129.751 336.011 131.864 336.624L138.838 330.492C138.838 325.178 141.12 306.457 140.106 298.608L138.204 277.761H118.551Z" fill="#FFC095"/>
<g filter="url(#filter4_f)">
<path d="M123.396 242.811L145.176 255.687L152.784 284.505C133.198 288.093 87.8999 288.518 65.9297 267.95L87.6303 246.996L123.396 242.811Z" fill="#670638"/>
</g>
<path d="M121.722 239.132L145.179 255.074L152.153 282.053C132.711 285.732 88.375 287.817 66.5664 266.724L86.2195 243.424L121.722 239.132Z" fill="#BB0162"/>
<g filter="url(#filter5_f)">
<path d="M124.833 246.49L146.379 259.445L152.784 281.368C134.927 284.358 94.2035 286.052 74.1719 268.912L92.2236 249.978L124.833 246.49Z" fill="#9A0653"/>
</g>
<g filter="url(#filter6_f)">
<path d="M118.665 239.132L138.126 250.791L143.911 270.522C127.782 273.213 90.9993 274.737 72.9062 259.311L89.2111 242.271L118.665 239.132Z" fill="#D33487"/>
</g>
<g filter="url(#filter7_f)">
<ellipse rx="13.6365" ry="1.25488" transform="matrix(0.576257 -0.817268 0.834776 0.550589 81.8119 257.099)" fill="#65024A"/>
</g>
<g filter="url(#filter8_f)">
<ellipse rx="13.6171" ry="1.25662" transform="matrix(0.537443 -0.8433 0.858948 0.512062 88.9056 259.907)" fill="#65024A"/>
</g>
<g filter="url(#filter9_f)">
<ellipse rx="13.5563" ry="1.26205" transform="matrix(0.390054 -0.920792 0.929674 0.368384 96.5117 263.586)" fill="#65024A"/>
</g>
<g filter="url(#filter10_f)">
<ellipse rx="13.4901" ry="1.26789" transform="matrix(0.0378919 -0.999282 0.999372 0.035448 127.938 270.659)" fill="#65024A"/>
</g>
<g filter="url(#filter11_f)">
<ellipse rx="13.4895" ry="1.26794" transform="matrix(-0.00979351 -0.999952 0.999958 -0.00916109 135.491 269.379)" fill="#65024A"/>
</g>
<g filter="url(#filter12_f)">
<ellipse rx="13.5033" ry="1.26673" transform="matrix(-0.177812 -0.984064 0.986015 -0.166658 143.95 268.573)" fill="#65024A"/>
</g>
<g filter="url(#filter13_f)">
<ellipse rx="13.5145" ry="1.26574" transform="matrix(0.239412 -0.970918 0.974415 0.224757 104.633 266.027)" fill="#65024A"/>
</g>
<g filter="url(#filter14_f)">
<ellipse rx="13.5057" ry="1.26651" transform="matrix(0.192991 -0.981201 0.983492 0.180949 112.301 266.206)" fill="#65024A"/>
</g>
<g filter="url(#filter15_f)">
<ellipse rx="13.4898" ry="1.26792" transform="matrix(0.0252716 -0.999681 0.999721 0.0236405 120.765 267.02)" fill="#65024A"/>
</g>
<path d="M80.1703 215.15C93.695 219.033 126.323 226.554 148.639 225.573C170.955 224.592 177.802 219.85 178.436 217.602C180.549 209.018 184.522 188.906 183.508 177.134C185.07 185.066 187.21 202.424 184.324 212.755C187.714 202.099 192.325 178.9 188.579 154.447C190.077 162.85 192.319 178.688 192.594 191.391C193.158 176.078 192.716 154.756 188.579 139.118C189.213 124.606 180.718 94.3573 141.666 89.452C92.8497 83.3204 82.0722 102.941 78.2683 115.818C74.4645 128.694 67.4908 133.599 66.2229 159.965C65.2085 181.058 67.0682 197.777 68.1248 203.5C67.4909 193.689 66.8571 171.247 69.393 159.965C69.8157 169.571 70.9145 190.746 71.9289 198.594C72.9432 206.443 76.5778 212.084 78.2683 213.923L80.1703 179.586V215.15Z" fill="#66321D"/>
<path d="M59.8914 309.067L55.6647 315.681L49.9486 321.036C40.5964 316.525 20.5777 304.694 15.3199 293.456C20.226 292.227 32.1598 296.392 39.7059 302.772L44.0252 296.083C46.9425 297.701 50.3851 300.01 46.8561 303.139L59.8914 309.067Z" fill="#710202"/>
<path d="M61.571 305.324L58.4065 311.691L51.4642 317.461C42.1947 313.071 34.7956 310.687 29.7149 299.497C34.6316 298.196 36.0373 297.087 43.4756 303.376L43.2624 295.015C46.1508 296.595 45.7092 297.084 47.6667 298.739L61.571 305.324Z" fill="#FBFF2F"/>
<g filter="url(#filter16_f)">
<path d="M60.7856 308.105L56.4662 314.794L50.6788 320.242C41.4093 315.852 21.6001 304.274 16.5194 293.084C21.4361 291.783 33.1292 290.754 40.5675 297.043L43.658 293.624C46.5463 295.204 51.4303 299.161 47.86 302.347L60.7856 308.105Z" fill="#E0032B"/>
</g>
<g filter="url(#filter17_f)">
<path d="M40.7087 297.138C32.4054 290.56 22.5312 290.957 17.3948 292.926C17.3783 294.311 21.3107 302.015 22.441 300.278C25.3226 295.852 32.8748 295.126 40.7087 297.138Z" fill="#940202"/>
</g>
<path d="M38.3929 295.629C38.962 297.546 39.9141 301.396 39.1694 301.456" stroke="white"/>
<path d="M35.5016 294.049C36.381 295.941 37.8653 299.839 36.7674 300.289" stroke="white"/>
<path d="M123.741 331.035L122.417 338.705L123.072 346.375C133.181 348.938 156.301 352.787 167.91 347.68C165.055 343.63 153.239 339.162 143.216 339.156L144.521 331.372C141.224 330.731 137.061 330.276 137.586 334.878L123.741 331.035Z" fill="#720202"/>
<path d="M125.02 327.148L123.066 333.954L124.361 342.718C134.325 345.319 141.517 348.238 152.959 343.055C150.145 338.944 149.843 337.214 139.963 337.208L145.817 331.052C142.568 330.402 142.567 331.051 139.967 331.049L125.02 327.148Z" fill="#FBFF2F"/>
<g filter="url(#filter18_f)">
<path d="M123.722 329.742L122.417 337.527L123.062 345.313C133.027 347.914 155.817 351.82 167.26 346.636C164.446 342.525 156.348 334.302 146.468 334.297L146.471 329.755C143.221 329.104 136.852 328.971 137.369 333.643L123.722 329.742Z" fill="#E0032B"/>
</g>
<g filter="url(#filter19_f)">
<path d="M146.298 334.278C157.025 334.617 164.185 341.206 166.709 345.959C165.779 347.012 157.574 350.304 157.906 348.277C158.752 343.111 153.563 337.754 146.298 334.278Z" fill="#940202"/>
</g>
<path d="M149.069 334.618C147.335 335.698 143.997 337.989 144.517 338.508" stroke="white"/>
<path d="M152.319 335.269C150.368 336.133 146.597 338.12 147.117 339.158" stroke="white"/>
<path d="M221.889 189.515C218.846 186.572 207.519 186.245 202.236 186.449L199.066 191.355L214.282 193.807L223.791 195.647C223.369 195.034 222.27 193.562 221.255 192.581C220.32 191.676 215.718 190.702 213.019 190.235C212.782 190.209 212.568 190.174 212.38 190.128C212.577 190.16 212.791 190.196 213.019 190.235C215.339 190.493 219.78 189.886 221.889 189.515Z" fill="#F19161"/>
<path d="M131.23 186.401C129.962 190.488 130.342 194.776 131.863 196.738C133.385 198.7 124.467 204.505 119.818 207.162L103.969 196.738C106.505 194.081 111.576 187.418 111.576 182.022C111.576 176.626 123.833 184.152 131.23 186.401Z" fill="#E4AF84"/>
<g filter="url(#filter20_f)">
<path d="M133.133 196.824C128.061 201.116 115.128 206.512 103.97 193.758L92.5586 245.263C104.393 246.694 128.695 250.046 131.231 252.008L133.133 196.824Z" fill="#EB41A8"/>
</g>
<path d="M133.133 194.371C128.061 198.664 115.128 204.059 103.97 191.306L92.5586 242.811C104.393 244.242 128.695 247.594 131.231 249.556L133.133 194.371Z" fill="#FFB7D5"/>
<path d="M155.203 180.961C160.487 181.778 172.194 181.697 176.759 174.829C182.464 166.245 184.366 160.727 179.928 150.916C175.279 150.712 166.108 149.445 166.615 146.011C167.249 141.719 167.883 132.521 167.883 125.163C167.883 117.806 161.543 99.4108 132.381 95.1187C109.05 91.685 93.4969 101.863 88.6365 107.382C85.4666 117.806 79.7609 141.964 82.2967 155.208C79.5494 151.734 74.3083 142.209 75.3226 131.908C71.3076 132.93 63.9114 137.672 66.4473 148.463C69.6172 161.953 79.7605 164.406 84.1985 165.632C86.3117 170.537 94.2152 181.451 108.923 185.866C112.727 189.341 122.998 194.45 133.648 187.092C137.664 187.501 147.596 186.847 155.203 180.961Z" fill="#F8CAA8"/>
<path d="M164.829 169.845C181.059 158.563 180.045 135.712 177.509 125.697L169.901 103.624L142.006 93.1998L117.915 91.3604L95.7265 96.8788L81.7793 112.821L76.7073 129.376L72.2695 134.895C72.2695 152.377 78.8976 158.482 82.3109 159.395C82.1483 159.216 81.9714 159.02 81.7793 158.808C78.229 154.884 80.3 143.683 81.7793 138.574C90.0209 133.055 95.0925 120.792 93.1906 116.5C91.6691 113.066 98.4737 109.346 103.334 107.302C111.956 121.037 126.58 123.245 132.497 125.084C121.846 119.688 119.183 108.529 119.183 103.624C124.255 112.944 139.893 122.223 147.078 125.697C144.542 125.697 142.64 128.15 142.006 129.376C153.418 125.697 161.025 137.347 161.659 136.121C162.167 135.14 158.489 131.216 156.588 129.376C158.616 129.867 163.35 129.581 165.463 129.376C163.435 139.187 165.463 147.771 166.731 150.837C168.76 153.289 166.309 164.531 164.829 169.845Z" fill="#66321D"/>
<path d="M116.776 124.583C112.798 122.976 102.171 121.221 91.4839 127.061C93.2396 125.283 98.0128 121.517 103.06 120.677C108.108 119.836 114.307 122.931 116.776 124.583Z" fill="#702714"/>
<g filter="url(#filter21_f)">
<path d="M113.57 147.493C115.013 140.152 114.501 135.484 110.696 132.16C105.94 128.005 96.8737 128.26 93.2004 131.58C89.6702 134.771 89.9563 140.293 90.8055 143.268C92.7673 146.94 94.536 148.301 97.2805 149.156C100.025 150.012 109.84 148.823 113.57 147.493Z" fill="#5E1705"/>
</g>
<g filter="url(#filter22_f)">
<path d="M114.134 149.867C115.604 142.324 114.964 138.007 111.215 134.614C106.528 130.374 97.3341 130.911 93.6773 134.34C90.163 137.634 90.7874 142.601 91.6116 145.651C93.5338 149.409 95.2778 150.798 97.9911 151.661C100.704 152.525 110.432 151.252 114.134 149.867Z" fill="white"/>
</g>
<ellipse rx="6.71218" ry="6.49715" transform="matrix(0.994235 0.107224 -0.114533 0.993419 103.902 143.356)" fill="#072286"/>
<g filter="url(#filter23_f)">
<ellipse rx="3.91544" ry="4.33143" transform="matrix(0.994235 0.107224 -0.114533 0.993419 104.416 145.323)" fill="#010020"/>
</g>
<path d="M109.924 141.947C111.145 145.174 109.407 148.783 106 149.989C102.593 151.195 98.8564 149.524 97.6351 146.296C96.4138 143.069 98.1522 139.46 101.559 138.254C104.966 137.048 108.703 138.719 109.924 141.947Z" stroke="#040E6D"/>
<g filter="url(#filter24_f)">
<path d="M103.249 141.385C103.063 142.999 101.387 143.907 100.158 143.775C98.9298 143.642 95.8948 141.681 96.6993 139.59C96.8363 138.402 99.6741 137.188 100.903 137.32C102.131 137.453 103.386 140.197 103.249 141.385Z" fill="white"/>
</g>
<g filter="url(#filter25_f)">
<path d="M139.384 150.699C143.642 152.808 153.356 156.309 158.15 153.436C164.142 149.844 164.567 145.355 162.632 140.344C161.084 136.336 155.058 135.141 152.128 134.772C150.186 134.839 144.326 135.636 142.553 138.179C140.781 140.722 140.414 146.996 139.384 150.699Z" fill="#5E1705"/>
</g>
<g filter="url(#filter26_f)">
<path d="M137.836 153.13C141.978 155.182 151.035 157.853 156.091 155.792C162.698 153.1 163.253 147.342 161.371 142.468C159.866 138.569 154.632 137.474 151.782 137.115C147.303 137.249 145.282 138.389 143.1 140.498C140.228 143.273 138.838 149.528 137.836 153.13Z" fill="white"/>
</g>
<ellipse rx="6.71218" ry="6.49715" transform="matrix(0.994235 0.107224 -0.114533 0.993419 149.269 148.249)" fill="#07248C"/>
<g filter="url(#filter27_f)">
<ellipse rx="3.91544" ry="4.33143" transform="matrix(0.994235 0.107224 -0.114533 0.993419 149.783 150.216)" fill="#010020"/>
</g>
<path d="M155.432 145.62C156.653 148.847 154.915 152.456 151.508 153.662C148.101 154.868 144.364 153.197 143.143 149.969C141.922 146.742 143.66 143.133 147.067 141.927C150.474 140.721 154.21 142.392 155.432 145.62Z" stroke="#040E6D"/>
<g filter="url(#filter28_f)">
<path d="M148.612 146.278C148.426 147.891 146.75 148.8 145.522 148.667C144.293 148.535 141.258 146.574 142.063 144.482C142.2 143.294 145.037 142.08 146.266 142.213C147.495 142.345 148.749 145.09 148.612 146.278Z" fill="white"/>
</g>
<path d="M106.189 165.183C106.683 163.818 109.036 163.597 112.706 163.992C118.412 164.605 127.286 165.831 133.626 167.058C135.525 167.425 138.586 167.921 138.84 169.844C139.094 171.768 132.641 182.64 120.201 180.269C105.84 177.531 106.018 166.024 106.189 165.183Z" fill="#6B0000"/>
<path d="M111.58 163.714L115.388 164.327L123.098 165.037L129.318 166.223L134.407 166.779C133.373 167.624 127.093 170.798 122.117 169.85C116.125 168.707 112.745 165.394 111.58 163.714Z" fill="white"/>
<path d="M113.093 177.746L116.018 179.042L119.69 180.254L123.625 180.881L126.777 180.355C126.456 179.512 123.692 176.017 120.848 175.475C117.424 174.822 114.137 176.851 113.093 177.746Z" fill="#DB5D46"/>
<g filter="url(#filter29_f)">
<path d="M129.379 160.281C129.678 159.012 129.444 157.681 128.728 156.579C128.012 155.478 126.873 154.697 125.562 154.407C124.251 154.118 122.874 154.344 121.735 155.037C120.596 155.729 119.788 156.83 119.489 158.099L120.877 158.405C121.092 157.493 121.674 156.7 122.493 156.202C123.312 155.705 124.302 155.542 125.245 155.75C126.189 155.958 127.008 156.52 127.523 157.312C128.038 158.104 128.206 159.062 127.991 159.974L129.379 160.281Z" fill="#CC775F"/>
</g>
<g filter="url(#filter30_f)">
<ellipse rx="6.97302" ry="4.29255" transform="matrix(0.998612 -0.0526785 0.0563042 0.998414 95.9589 157.943)" fill="#FF809A"/>
</g>
<g filter="url(#filter31_f)">
<ellipse rx="4.43738" ry="3.06611" transform="matrix(0.998612 -0.0526785 0.0563042 0.998414 95.9554 157.943)" fill="#FDB4C3" fill-opacity="0.8"/>
</g>
<g filter="url(#filter32_f)">
<ellipse rx="6.9449" ry="3.07927" transform="matrix(0.937894 0.346921 -0.367725 0.929935 150.108 163.468)" fill="#FF809A"/>
</g>
<g filter="url(#filter33_f)">
<ellipse rx="4.41948" ry="3.07927" transform="matrix(0.937894 0.346921 -0.367725 0.929935 149.657 164.614)" fill="#FDB4C3" fill-opacity="0.8"/>
</g>
<path d="M177.512 120.965C165.678 107.067 131.106 84.9118 87.4883 107.476C90.6581 98.8918 104.09 86.2351 135.67 90.3075C164.199 93.9865 174.976 111.768 177.512 120.965Z" fill="#FC019E"/>
<path d="M133.131 195.19C127.947 199.265 114.856 204.438 103.969 192.532" stroke="#DC86AB" stroke-width="2"/>
<g filter="url(#filter34_f)">
<path d="M130.599 196.984C128.063 215.174 121.976 252.866 125.526 258.753C128.696 258.548 138.587 260.016 145.18 266.884L147.716 271.789C147.716 256.256 146.195 217.426 145.18 213.992C147.716 211.948 156.211 211.049 167.369 213.992C167.158 206.43 166.482 195.39 162.931 193.918C158.071 195.962 144.8 199.436 130.599 196.984Z" fill="#861459"/>
</g>
<g filter="url(#filter35_f)">
<path d="M109.043 193.918C107.986 212.518 106 250.574 101.435 256.461C97.6316 255.643 82.4163 255.48 74.8086 256.461C79.4577 243.789 95.0957 216.568 92.5598 209.7C90.0239 202.833 83.6842 196.211 79.8804 197.437C83.6842 190.488 86.9809 183.127 87.488 181.655C87.9952 180.184 102.069 189.218 109.043 193.918Z" fill="#7A034B"/>
</g>
<path d="M130.598 193.305C128.062 211.495 123.878 249.348 127.428 255.234C130.598 255.03 138.586 256.338 145.179 263.205L151.519 269.177C151.519 253.643 147.462 220.652 146.447 217.218C148.983 215.174 156.844 211.822 168.002 214.766C167.791 207.203 166.481 191.711 162.93 190.239C158.07 192.283 144.799 195.758 130.598 193.305Z" fill="#FCDB67"/>
<path d="M109.043 190.24C107.986 208.839 104.732 247.509 100.167 253.395C96.3636 252.577 82.4163 251.801 74.8086 252.782C79.4577 240.11 91.2919 214.275 88.756 207.408C86.2201 200.541 79.2464 199.437 75.4426 200.663C79.2464 193.714 86.9809 179.448 87.488 177.977C87.9952 176.505 102.069 185.539 109.043 190.24Z" fill="#FCDB67"/>
<path d="M163.562 206.695C173.072 203.833 192.725 197.377 194.627 194.985C197.071 191.91 207.941 195.658 210.476 196.271C213.012 196.884 222.522 198.724 223.156 197.497C223.79 196.271 214.914 193.818 207.941 190.139C200.967 186.46 203.503 187.073 203.503 185.847C203.503 184.621 210.476 182.168 211.744 179.102C212.759 176.65 212.167 176.445 211.744 176.65C205.405 178.694 197.036 179.901 193.993 183.335C190.95 186.768 170.748 191.774 163.562 191.979V206.695Z" fill="#FFC095"/>
<path d="M163.562 189.466C165.676 194.167 169.649 205.898 168.634 215.218H162.294C161.872 209.087 160.266 195.843 157.223 191.918L163.562 189.466Z" fill="#CD5297"/>
<path d="M86.2202 179.042C82.7335 172.047 77.6616 171.685 57.6914 164.327C57.2687 160.443 55.4091 151.941 51.3516 148.998C47.2942 146.055 41.6307 148.18 39.3062 149.611C39.1077 150.954 38.8347 153.776 39.2222 154.927C39.2565 154.998 39.2845 155.066 39.3062 155.129C39.2753 155.07 39.2474 155.002 39.2222 154.927C38.9223 154.306 38.1354 153.463 36.7701 153.903C34.8682 154.516 34.2342 156.969 35.5022 160.035C34.4456 159.626 32.3326 159.176 32.3326 160.648C32.3326 162.487 31.0647 163.714 33.6006 166.166C33.1779 166.371 32.3326 166.902 32.3326 167.392C32.3326 168.006 32.9666 171.071 37.4044 171.685C41.8422 172.298 46.9137 174.137 51.3516 173.524C58.9593 178.429 74.3015 189.589 74.8087 194.985C75.3159 200.38 83.473 185.378 86.2202 179.042Z" fill="#FEC494"/>
<path d="M90.9977 177.875C89.7093 182.847 85.4626 194.489 78.7832 201.278L72.9081 198.663C76.4385 193.554 84.3647 180.986 84.4265 176.081L90.9977 177.875Z" fill="#CD5297"/>
<g filter="url(#filter36_f)">
<ellipse rx="1.26064" ry="3.70147" transform="matrix(0.911991 -0.41021 0.433354 0.901224 42.0584 155.916)" fill="#DA7F5B"/>
</g>
<g filter="url(#filter37_f)">
<ellipse rx="1.2538" ry="2.64499" transform="matrix(0.819441 -0.573164 0.598845 0.800865 38.1114 162.258)" fill="#BB6746"/>
</g>
<g filter="url(#filter38_f)">
<ellipse rx="1.2538" ry="2.37844" transform="matrix(0.819441 -0.573164 0.598845 0.800865 36.6861 166.95)" fill="#BB6746"/>
</g>
<g filter="url(#filter39_f)">
<ellipse rx="9.14321" ry="1.24036" transform="matrix(0.825305 0.564687 -0.590377 0.807127 61.7199 176.639)" fill="#E08F6E"/>
</g>
<g filter="url(#filter40_f)">
<ellipse rx="5.26548" ry="1.24036" transform="matrix(0.825305 0.564687 -0.590377 0.807127 56.4415 169.612)" fill="#F0946E"/>
</g>
<g filter="url(#filter41_f)">
<ellipse rx="8.99219" ry="1.26096" transform="matrix(0.423941 0.90569 -0.916037 0.401093 129.223 309.098)" fill="#E08F6E" fill-opacity="0.5"/>
</g>
<g filter="url(#filter42_f)">
<ellipse rx="8.94893" ry="1.26674" transform="matrix(0.177229 0.98417 -0.986107 0.16611 125.825 318.05)" fill="#E08F6E" fill-opacity="0.5"/>
</g>
<g filter="url(#filter43_f)">
<ellipse rx="8.94893" ry="3.04854" transform="matrix(0.177229 0.98417 -0.986107 0.16611 135.478 292.593)" fill="#E08F6E" fill-opacity="0.5"/>
</g>
<g filter="url(#filter44_f)">
<ellipse rx="5.17281" ry="1.26229" transform="matrix(0.382012 0.924157 -0.932703 0.360645 123.607 295.873)" fill="#F0946E" fill-opacity="0.5"/>
</g>
<path d="M56.4237 114.048C53.8879 112.085 52.4086 107.507 51.9859 105.463C65.9331 100.558 102.069 81.5501 93.8278 36.1764C88.756 21.4606 78.4857 0 42.4764 0C6.46698 0 0 36.1764 0 47.8264C0 93.2001 42.4764 101.171 39.9405 107.916C37.4046 114.661 29.163 115.274 36.1366 115.887C41.2442 116.336 42.4905 115.106 42.5025 114.268C42.4924 114.192 42.4837 114.119 42.4764 114.048C42.4942 114.117 42.5036 114.191 42.5025 114.268C42.7818 116.362 44.1217 120.039 47.5481 119.566C51.9859 118.953 50.718 116.5 50.718 114.048C50.718 111.595 59.5936 116.5 56.4237 114.048Z" fill="#FEA796"/>
<g filter="url(#filter45_f)">
<path d="M53.8873 112.208C51.5535 110.398 49.2045 104.897 48.8155 103.011C79.622 95.3161 96.0395 62.7114 90.7885 39.5138C86.1208 25.9347 76.669 6.13184 43.5291 6.13184C10.3891 6.13184 4.4375 39.5138 4.4375 50.2639C14.9396 104.58 45.4436 99.8529 43.1098 106.077C40.776 112.3 32.254 114.708 38.672 115.274C43.3725 115.688 43.5421 112.347 43.5531 111.573C43.5438 111.503 43.5358 111.436 43.5291 111.37C43.5455 111.434 43.5541 111.502 43.5531 111.573C43.8101 113.506 43.7602 118.164 46.9136 117.727C50.9978 117.161 48.8155 114.471 48.8155 112.208C48.8155 109.945 56.8046 114.471 53.8873 112.208Z" fill="#FDB4C3" fill-opacity="0.8"/>
</g>
<g filter="url(#filter46_f)">
<path d="M53.2535 110.369C51.1902 108.759 49.7935 104.687 49.4496 103.011C76.6844 96.1708 91.7589 65.0088 87.1166 44.3887C82.9902 32.3184 74.6342 14.7158 45.3366 14.7158C16.0389 14.7158 10.7773 44.3887 10.7773 53.9443C20.0619 102.226 48.343 98.7048 46.2798 104.237C44.2165 109.769 36.8021 112.318 42.4759 112.821C46.6315 113.19 45.3481 109.129 45.3578 108.442C45.3496 108.379 45.3425 108.319 45.3366 108.261C45.3511 108.317 45.3587 108.378 45.3578 108.442C45.585 110.159 46.6752 113.175 49.463 112.787C53.0736 112.284 49.4496 111.154 49.4496 109.142C49.4496 107.131 55.8325 112.38 53.2535 110.369Z" fill="#F7AEA7"/>
</g>
<g filter="url(#filter47_f)">
<path d="M58.8826 100.558C60.6467 95.4042 36.4658 98.6839 28.5273 53.7096C28.5273 44.8084 33.0261 17.168 58.0761 17.168C83.1261 17.168 90.2706 33.5648 93.7988 44.8084C97.7681 64.0162 83.5363 93.4669 60.2501 99.8382L58.8826 100.558Z" fill="#F7AEA7"/>
</g>
<g filter="url(#filter48_f)">
<ellipse cx="19.0167" cy="43.534" rx="6.97369" ry="15.329" fill="#FF87C6"/>
</g>
<g filter="url(#filter49_f)">
<ellipse cx="22.8229" cy="69.287" rx="5.70575" ry="5.51843" fill="#DDA2C2"/>
</g>
<defs>
<filter id="filter0_f" x="11" y="332" width="177.904" height="34.979" filterUnits="userSpaceOnUse" color-interpolation-filters="sRGB">
<feFlood flood-opacity="0" result="BackgroundImageFix"/>
<feBlend mode="normal" in="SourceGraphic" in2="BackgroundImageFix" result="shape"/>
<feGaussianBlur stdDeviation="2" result="effect1_foregroundBlur"/>
</filter>
<filter id="filter1_f" x="64.4297" y="275.57" width="12.9883" height="22.7348" filterUnits="userSpaceOnUse" color-interpolation-filters="sRGB">
<feFlood flood-opacity="0" result="BackgroundImageFix"/>
<feBlend mode="normal" in="SourceGraphic" in2="BackgroundImageFix" result="shape"/>
<feGaussianBlur stdDeviation="1.5" result="effect1_foregroundBlur"/>
</filter>
<filter id="filter2_f" x="53.5234" y="280.584" width="16.8837" height="20.6617" filterUnits="userSpaceOnUse" color-interpolation-filters="sRGB">
<feFlood flood-opacity="0" result="BackgroundImageFix"/>
<feBlend mode="normal" in="SourceGraphic" in2="BackgroundImageFix" result="shape"/>
<feGaussianBlur stdDeviation="1.5" result="effect1_foregroundBlur"/>
</filter>
<filter id="filter3_f" x="71.25" y="266.011" width="10.8259" height="15.5013" filterUnits="userSpaceOnUse" color-interpolation-filters="sRGB">
<feFlood flood-opacity="0" result="BackgroundImageFix"/>
<feBlend mode="normal" in="SourceGraphic" in2="BackgroundImageFix" result="shape"/>
<feGaussianBlur stdDeviation="1.5" result="effect1_foregroundBlur"/>
</filter>
<filter id="filter4_f" x="62.9297" y="239.811" width="92.8541" height="49.5889" filterUnits="userSpaceOnUse" color-interpolation-filters="sRGB">
<feFlood flood-opacity="0" result="BackgroundImageFix"/>
<feBlend mode="normal" in="SourceGraphic" in2="BackgroundImageFix" result="shape"/>
<feGaussianBlur stdDeviation="1.5" result="effect1_foregroundBlur"/>
</filter>
<filter id="filter5_f" x="71.1719" y="243.49" width="84.6125" height="42.7895" filterUnits="userSpaceOnUse" color-interpolation-filters="sRGB">
<feFlood flood-opacity="0" result="BackgroundImageFix"/>
<feBlend mode="normal" in="SourceGraphic" in2="BackgroundImageFix" result="shape"/>
<feGaussianBlur stdDeviation="1.5" result="effect1_foregroundBlur"/>
</filter>
<filter id="filter6_f" x="63.9062" y="230.132" width="89.0048" height="51.1106" filterUnits="userSpaceOnUse" color-interpolation-filters="sRGB">
<feFlood flood-opacity="0" result="BackgroundImageFix"/>
<feBlend mode="normal" in="SourceGraphic" in2="BackgroundImageFix" result="shape"/>
<feGaussianBlur stdDeviation="4.5" result="effect1_foregroundBlur"/>
</filter>
<filter id="filter7_f" x="69.8828" y="241.933" width="23.8571" height="30.3329" filterUnits="userSpaceOnUse" color-interpolation-filters="sRGB">
<feFlood flood-opacity="0" result="BackgroundImageFix"/>
<feBlend mode="normal" in="SourceGraphic" in2="BackgroundImageFix" result="shape"/>
<feGaussianBlur stdDeviation="2" result="effect1_foregroundBlur"/>
</filter>
<filter id="filter8_f" x="77.5078" y="244.405" width="22.7971" height="31.0033" filterUnits="userSpaceOnUse" color-interpolation-filters="sRGB">
<feFlood flood-opacity="0" result="BackgroundImageFix"/>
<feBlend mode="normal" in="SourceGraphic" in2="BackgroundImageFix" result="shape"/>
<feGaussianBlur stdDeviation="2" result="effect1_foregroundBlur"/>
</filter>
<filter id="filter9_f" x="87.0938" y="247.095" width="18.8349" height="32.9826" filterUnits="userSpaceOnUse" color-interpolation-filters="sRGB">
<feFlood flood-opacity="0" result="BackgroundImageFix"/>
<feBlend mode="normal" in="SourceGraphic" in2="BackgroundImageFix" result="shape"/>
<feGaussianBlur stdDeviation="2" result="effect1_foregroundBlur"/>
</filter>
<filter id="filter10_f" x="122.57" y="253.179" width="10.7334" height="34.961" filterUnits="userSpaceOnUse" color-interpolation-filters="sRGB">
<feFlood flood-opacity="0" result="BackgroundImageFix"/>
<feBlend mode="normal" in="SourceGraphic" in2="BackgroundImageFix" result="shape"/>
<feGaussianBlur stdDeviation="2" result="effect1_foregroundBlur"/>
</filter>
<filter id="filter11_f" x="130.215" y="251.891" width="10.5497" height="34.9778" filterUnits="userSpaceOnUse" color-interpolation-filters="sRGB">
<feFlood flood-opacity="0" result="BackgroundImageFix"/>
<feBlend mode="normal" in="SourceGraphic" in2="BackgroundImageFix" result="shape"/>
<feGaussianBlur stdDeviation="2" result="effect1_foregroundBlur"/>
</filter>
<filter id="filter12_f" x="137.242" y="251.283" width="13.4141" height="34.5796" filterUnits="userSpaceOnUse" color-interpolation-filters="sRGB">
<feFlood flood-opacity="0" result="BackgroundImageFix"/>
<feBlend mode="normal" in="SourceGraphic" in2="BackgroundImageFix" result="shape"/>
<feGaussianBlur stdDeviation="2" result="effect1_foregroundBlur"/>
</filter>
<filter id="filter13_f" x="97.168" y="248.902" width="14.9272" height="34.2493" filterUnits="userSpaceOnUse" color-interpolation-filters="sRGB">
<feFlood flood-opacity="0" result="BackgroundImageFix"/>
<feBlend mode="normal" in="SourceGraphic" in2="BackgroundImageFix" result="shape"/>
<feGaussianBlur stdDeviation="2" result="effect1_foregroundBlur"/>
</filter>
<filter id="filter14_f" x="105.41" y="248.952" width="13.779" height="34.5077" filterUnits="userSpaceOnUse" color-interpolation-filters="sRGB">
<feFlood flood-opacity="0" result="BackgroundImageFix"/>
<feBlend mode="normal" in="SourceGraphic" in2="BackgroundImageFix" result="shape"/>
<feGaussianBlur stdDeviation="2" result="effect1_foregroundBlur"/>
</filter>
<filter id="filter15_f" x="115.453" y="249.534" width="10.6259" height="34.971" filterUnits="userSpaceOnUse" color-interpolation-filters="sRGB">
<feFlood flood-opacity="0" result="BackgroundImageFix"/>
<feBlend mode="normal" in="SourceGraphic" in2="BackgroundImageFix" result="shape"/>
<feGaussianBlur stdDeviation="2" result="effect1_foregroundBlur"/>
</filter>
<filter id="filter16_f" x="16.2195" y="291.804" width="44.8662" height="28.7377" filterUnits="userSpaceOnUse" color-interpolation-filters="sRGB">
<feFlood flood-opacity="0" result="BackgroundImageFix"/>
<feBlend mode="normal" in="SourceGraphic" in2="BackgroundImageFix" result="shape"/>
<feGaussianBlur stdDeviation="0.15" result="effect1_foregroundBlur"/>
</filter>
<filter id="filter17_f" x="14.3945" y="288.659" width="29.3139" height="14.8729" filterUnits="userSpaceOnUse" color-interpolation-filters="sRGB">
<feFlood flood-opacity="0" result="BackgroundImageFix"/>
<feBlend mode="normal" in="SourceGraphic" in2="BackgroundImageFix" result="shape"/>
<feGaussianBlur stdDeviation="1.5" result="effect1_foregroundBlur"/>
</filter>
<filter id="filter18_f" x="122.118" y="329.124" width="45.4427" height="20.3612" filterUnits="userSpaceOnUse" color-interpolation-filters="sRGB">
<feFlood flood-opacity="0" result="BackgroundImageFix"/>
<feBlend mode="normal" in="SourceGraphic" in2="BackgroundImageFix" result="shape"/>
<feGaussianBlur stdDeviation="0.15" result="effect1_foregroundBlur"/>
</filter>
<filter id="filter19_f" x="143.297" y="331.278" width="26.4115" height="20.6454" filterUnits="userSpaceOnUse" color-interpolation-filters="sRGB">
<feFlood flood-opacity="0" result="BackgroundImageFix"/>
<feBlend mode="normal" in="SourceGraphic" in2="BackgroundImageFix" result="shape"/>
<feGaussianBlur stdDeviation="1.5" result="effect1_foregroundBlur"/>
</filter>
<filter id="filter20_f" x="88.5586" y="189.758" width="48.5742" height="66.2501" filterUnits="userSpaceOnUse" color-interpolation-filters="sRGB">
<feFlood flood-opacity="0" result="BackgroundImageFix"/>
<feBlend mode="normal" in="SourceGraphic" in2="BackgroundImageFix" result="shape"/>
<feGaussianBlur stdDeviation="2" result="effect1_foregroundBlur"/>
</filter>
<filter id="filter21_f" x="89.2578" y="128.065" width="26.0529" height="22.3797" filterUnits="userSpaceOnUse" color-interpolation-filters="sRGB">
<feFlood flood-opacity="0" result="BackgroundImageFix"/>
<feBlend mode="normal" in="SourceGraphic" in2="BackgroundImageFix" result="shape"/>
<feGaussianBlur stdDeviation="0.5" result="effect1_foregroundBlur"/>
</filter>
<filter id="filter22_f" x="90.4688" y="131.101" width="24.8944" height="21.3426" filterUnits="userSpaceOnUse" color-interpolation-filters="sRGB">
<feFlood flood-opacity="0" result="BackgroundImageFix"/>
<feBlend mode="normal" in="SourceGraphic" in2="BackgroundImageFix" result="shape"/>
<feGaussianBlur stdDeviation="0.25" result="effect1_foregroundBlur"/>
</filter>
<filter id="filter23_f" x="98.4922" y="139" width="11.8495" height="12.6473" filterUnits="userSpaceOnUse" color-interpolation-filters="sRGB">
<feFlood flood-opacity="0" result="BackgroundImageFix"/>
<feBlend mode="normal" in="SourceGraphic" in2="BackgroundImageFix" result="shape"/>
<feGaussianBlur stdDeviation="1" result="effect1_foregroundBlur"/>
</filter>
<filter id="filter24_f" x="95.5664" y="136.311" width="8.69398" height="8.47707" filterUnits="userSpaceOnUse" color-interpolation-filters="sRGB">
<feFlood flood-opacity="0" result="BackgroundImageFix"/>
<feBlend mode="normal" in="SourceGraphic" in2="BackgroundImageFix" result="shape"/>
<feGaussianBlur stdDeviation="0.5" result="effect1_foregroundBlur"/>
</filter>
<filter id="filter25_f" x="138.383" y="133.771" width="26.2771" height="21.7501" filterUnits="userSpaceOnUse" color-interpolation-filters="sRGB">
<feFlood flood-opacity="0" result="BackgroundImageFix"/>
<feBlend mode="normal" in="SourceGraphic" in2="BackgroundImageFix" result="shape"/>
<feGaussianBlur stdDeviation="0.5" result="effect1_foregroundBlur"/>
</filter>
<filter id="filter26_f" x="137.336" y="136.615" width="25.4758" height="20.419" filterUnits="userSpaceOnUse" color-interpolation-filters="sRGB">
<feFlood flood-opacity="0" result="BackgroundImageFix"/>
<feBlend mode="normal" in="SourceGraphic" in2="BackgroundImageFix" result="shape"/>
<feGaussianBlur stdDeviation="0.25" result="effect1_foregroundBlur"/>
</filter>
<filter id="filter27_f" x="143.859" y="143.893" width="11.8495" height="12.6473" filterUnits="userSpaceOnUse" color-interpolation-filters="sRGB">
<feFlood flood-opacity="0" result="BackgroundImageFix"/>
<feBlend mode="normal" in="SourceGraphic" in2="BackgroundImageFix" result="shape"/>
<feGaussianBlur stdDeviation="1" result="effect1_foregroundBlur"/>
</filter>
<filter id="filter28_f" x="140.93" y="141.203" width="8.69398" height="8.47707" filterUnits="userSpaceOnUse" color-interpolation-filters="sRGB">
<feFlood flood-opacity="0" result="BackgroundImageFix"/>
<feBlend mode="normal" in="SourceGraphic" in2="BackgroundImageFix" result="shape"/>
<feGaussianBlur stdDeviation="0.5" result="effect1_foregroundBlur"/>
</filter>
<filter id="filter29_f" x="118.988" y="153.784" width="11.0166" height="6.9962" filterUnits="userSpaceOnUse" color-interpolation-filters="sRGB">
<feFlood flood-opacity="0" result="BackgroundImageFix"/>
<feBlend mode="normal" in="SourceGraphic" in2="BackgroundImageFix" result="shape"/>
<feGaussianBlur stdDeviation="0.25" result="effect1_foregroundBlur"/>
</filter>
<filter id="filter30_f" x="86.9922" y="151.642" width="17.9352" height="12.6034" filterUnits="userSpaceOnUse" color-interpolation-filters="sRGB">
<feFlood flood-opacity="0" result="BackgroundImageFix"/>
<feBlend mode="normal" in="SourceGraphic" in2="BackgroundImageFix" result="shape"/>
<feGaussianBlur stdDeviation="1" result="effect1_foregroundBlur"/>
</filter>
<filter id="filter31_f" x="88.5195" y="151.872" width="14.8693" height="12.1406" filterUnits="userSpaceOnUse" color-interpolation-filters="sRGB">
<feFlood flood-opacity="0" result="BackgroundImageFix"/>
<feBlend mode="normal" in="SourceGraphic" in2="BackgroundImageFix" result="shape"/>
<feGaussianBlur stdDeviation="1.5" result="effect1_foregroundBlur"/>
</filter>
<filter id="filter32_f" x="141.496" y="157.726" width="17.2247" height="11.4847" filterUnits="userSpaceOnUse" color-interpolation-filters="sRGB">
<feFlood flood-opacity="0" result="BackgroundImageFix"/>
<feBlend mode="normal" in="SourceGraphic" in2="BackgroundImageFix" result="shape"/>
<feGaussianBlur stdDeviation="1" result="effect1_foregroundBlur"/>
</filter>
<filter id="filter33_f" x="142.359" y="158.364" width="14.5959" height="12.4976" filterUnits="userSpaceOnUse" color-interpolation-filters="sRGB">
<feFlood flood-opacity="0" result="BackgroundImageFix"/>
<feBlend mode="normal" in="SourceGraphic" in2="BackgroundImageFix" result="shape"/>
<feGaussianBlur stdDeviation="1.5" result="effect1_foregroundBlur"/>
</filter>
<filter id="filter34_f" x="120.441" y="189.918" width="50.9277" height="85.8711" filterUnits="userSpaceOnUse" color-interpolation-filters="sRGB">
<feFlood flood-opacity="0" result="BackgroundImageFix"/>
<feBlend mode="normal" in="SourceGraphic" in2="BackgroundImageFix" result="shape"/>
<feGaussianBlur stdDeviation="2" result="effect1_foregroundBlur"/>
</filter>
<filter id="filter35_f" x="70.8086" y="177.495" width="42.2345" height="82.9655" filterUnits="userSpaceOnUse" color-interpolation-filters="sRGB">
<feFlood flood-opacity="0" result="BackgroundImageFix"/>
<feBlend mode="normal" in="SourceGraphic" in2="BackgroundImageFix" result="shape"/>
<feGaussianBlur stdDeviation="2" result="effect1_foregroundBlur"/>
</filter>
<filter id="filter36_f" x="38.0859" y="150.54" width="7.94733" height="10.7524" filterUnits="userSpaceOnUse" color-interpolation-filters="sRGB">
<feFlood flood-opacity="0" result="BackgroundImageFix"/>
<feBlend mode="normal" in="SourceGraphic" in2="BackgroundImageFix" result="shape"/>
<feGaussianBlur stdDeviation="1" result="effect1_foregroundBlur"/>
</filter>
<filter id="filter37_f" x="34.2227" y="158.021" width="7.7764" height="8.47494" filterUnits="userSpaceOnUse" color-interpolation-filters="sRGB">
<feFlood flood-opacity="0" result="BackgroundImageFix"/>
<feBlend mode="normal" in="SourceGraphic" in2="BackgroundImageFix" result="shape"/>
<feGaussianBlur stdDeviation="1" result="effect1_foregroundBlur"/>
</filter>
<filter id="filter38_f" x="32.9297" y="162.913" width="7.51268" height="8.07282" filterUnits="userSpaceOnUse" color-interpolation-filters="sRGB">
<feFlood flood-opacity="0" result="BackgroundImageFix"/>
<feBlend mode="normal" in="SourceGraphic" in2="BackgroundImageFix" result="shape"/>
<feGaussianBlur stdDeviation="1" result="effect1_foregroundBlur"/>
</filter>
<filter id="filter39_f" x="51.1367" y="168.379" width="21.1638" height="16.5204" filterUnits="userSpaceOnUse" color-interpolation-filters="sRGB">
<feFlood flood-opacity="0" result="BackgroundImageFix"/>
<feBlend mode="normal" in="SourceGraphic" in2="BackgroundImageFix" result="shape"/>
<feGaussianBlur stdDeviation="1.5" result="effect1_foregroundBlur"/>
</filter>
<filter id="filter40_f" x="49.0352" y="163.474" width="14.8152" height="12.2764" filterUnits="userSpaceOnUse" color-interpolation-filters="sRGB">
<feFlood flood-opacity="0" result="BackgroundImageFix"/>
<feBlend mode="normal" in="SourceGraphic" in2="BackgroundImageFix" result="shape"/>
<feGaussianBlur stdDeviation="1.5" result="effect1_foregroundBlur"/>
</filter>
<filter id="filter41_f" x="122.238" y="297.938" width="13.9687" height="22.3202" filterUnits="userSpaceOnUse" color-interpolation-filters="sRGB">
<feFlood flood-opacity="0" result="BackgroundImageFix"/>
<feBlend mode="normal" in="SourceGraphic" in2="BackgroundImageFix" result="shape"/>
<feGaussianBlur stdDeviation="1.5" result="effect1_foregroundBlur"/>
</filter>
<filter id="filter42_f" x="120.805" y="306.24" width="10.0379" height="23.6197" filterUnits="userSpaceOnUse" color-interpolation-filters="sRGB">
<feFlood flood-opacity="0" result="BackgroundImageFix"/>
<feBlend mode="normal" in="SourceGraphic" in2="BackgroundImageFix" result="shape"/>
<feGaussianBlur stdDeviation="1.5" result="effect1_foregroundBlur"/>
</filter>
<filter id="filter43_f" x="129.078" y="280.771" width="12.7992" height="23.6441" filterUnits="userSpaceOnUse" color-interpolation-filters="sRGB">
<feFlood flood-opacity="0" result="BackgroundImageFix"/>
<feBlend mode="normal" in="SourceGraphic" in2="BackgroundImageFix" result="shape"/>
<feGaussianBlur stdDeviation="1.5" result="effect1_foregroundBlur"/>
</filter>
<filter id="filter44_f" x="118.309" y="288.071" width="10.6011" height="15.6049" filterUnits="userSpaceOnUse" color-interpolation-filters="sRGB">
<feFlood flood-opacity="0" result="BackgroundImageFix"/>
<feBlend mode="normal" in="SourceGraphic" in2="BackgroundImageFix" result="shape"/>
<feGaussianBlur stdDeviation="1.5" result="effect1_foregroundBlur"/>
</filter>
<filter id="filter45_f" x="0.4375" y="2.13184" width="95.3187" height="119.624" filterUnits="userSpaceOnUse" color-interpolation-filters="sRGB">
<feFlood flood-opacity="0" result="BackgroundImageFix"/>
<feBlend mode="normal" in="SourceGraphic" in2="BackgroundImageFix" result="shape"/>
<feGaussianBlur stdDeviation="2" result="effect1_foregroundBlur"/>
</filter>
<filter id="filter46_f" x="6.77734" y="10.7158" width="85.1718" height="106.129" filterUnits="userSpaceOnUse" color-interpolation-filters="sRGB">
<feFlood flood-opacity="0" result="BackgroundImageFix"/>
<feBlend mode="normal" in="SourceGraphic" in2="BackgroundImageFix" result="shape"/>
<feGaussianBlur stdDeviation="2" result="effect1_foregroundBlur"/>
</filter>
<filter id="filter47_f" x="20.5273" y="9.16797" width="81.9331" height="99.3896" filterUnits="userSpaceOnUse" color-interpolation-filters="sRGB">
<feFlood flood-opacity="0" result="BackgroundImageFix"/>
<feBlend mode="normal" in="SourceGraphic" in2="BackgroundImageFix" result="shape"/>
<feGaussianBlur stdDeviation="4" result="effect1_foregroundBlur"/>
</filter>
<filter id="filter48_f" x="8.04297" y="24.2051" width="21.9474" height="38.6579" filterUnits="userSpaceOnUse" color-interpolation-filters="sRGB">
<feFlood flood-opacity="0" result="BackgroundImageFix"/>
<feBlend mode="normal" in="SourceGraphic" in2="BackgroundImageFix" result="shape"/>
<feGaussianBlur stdDeviation="2" result="effect1_foregroundBlur"/>
</filter>
<filter id="filter49_f" x="13.1172" y="59.7686" width="19.4115" height="19.0369" filterUnits="userSpaceOnUse" color-interpolation-filters="sRGB">
<feFlood flood-opacity="0" result="BackgroundImageFix"/>
<feBlend mode="normal" in="SourceGraphic" in2="BackgroundImageFix" result="shape"/>
<feGaussianBlur stdDeviation="2" result="effect1_foregroundBlur"/>
</filter>
</defs>
</svg>
