<svg width="654" height="364" viewBox="0 0 654 364" fill="none" xmlns="http://www.w3.org/2000/svg">
<path d="M416.112 201.515L411.592 279.591C405.589 281.956 393.438 286.013 392.861 283.323C392.285 280.633 392.095 253.177 392.072 239.786L250.304 278.605L138.511 297.273L128.079 340.349L98.1209 343.282L93.383 336.619L92.7035 299.157L30.8054 232.134L31.3256 260.822L10.518 240.96L10.9353 154.86L416.112 201.515Z" fill="#667D9B"/>
<g filter="url(#filter0_f)">
<path d="M414.633 210.66L108.28 266.787L101.547 295.613L357.696 235.375L414.633 210.66Z" fill="#496180"/>
</g>
<path d="M105.105 273.6C105.13 274.95 100.234 320.171 97.7823 342.613C96.5571 341.736 94.097 339.442 94.0579 337.282C94.0187 335.122 92.3666 292.523 91.5455 271.494L95.3181 261.294L105.105 273.6Z" fill="#496180"/>
<path d="M423.911 194.953C424.701 196.063 425.937 204.908 424.13 207.103C421.871 209.847 400.662 214.31 387.703 218.599C373.634 223.256 292.798 240.998 285.929 244.167C279.061 247.336 267.248 250.599 244.243 255.088C221.239 259.576 111.404 275.506 105.109 273.938L107.154 259.381C149.351 240.235 233.149 210.733 243.435 210.537C253.721 210.342 366.583 198.068 423.911 194.953Z" fill="#56B0D7"/>
<g filter="url(#filter1_f)">
<path d="M102.984 265.875L12.9384 156.173L97.2034 292.657L102.984 265.875Z" fill="#496180"/>
</g>
<g filter="url(#filter2_i)">
<path d="M13.6636 141.641L75.9774 195.21L106.909 264.112L105.438 273.931C76.1981 237.686 12.28 163.545 7.69344 157.96C3.10691 152.375 9.7867 140.027 13.6636 141.641Z" fill="#56B0D7"/>
</g>
<path d="M278.781 84.947C324.767 111.082 418.578 170.206 425.935 197.615C360.59 219.339 205.236 263.121 106.585 264.456C83.8842 237.203 34.9686 178.037 20.911 159.397L8.76087 144.098L278.781 84.947Z" fill="#74C7E4"/>
<g filter="url(#filter3_d)">
<path d="M338.847 152.004C339.068 152.844 345.834 162.005 356.321 171.728C366.809 181.451 374.078 184.268 378.373 193.687C363.468 201.922 329.78 218.339 314.268 218.128C307.378 205.873 293.519 179.297 293.204 171.027L338.847 152.004Z" fill="white"/>
</g>
<g filter="url(#filter4_d)">
<path d="M72.5051 170.497C73.5204 170.912 86.2085 172.719 100.907 172.575C115.606 172.431 121.441 169.752 133.495 173.268C137.087 187.979 142.766 219.783 136.755 229.316C120.585 225.552 85.9228 216.713 76.6255 211.47L72.5051 170.497Z" fill="white"/>
<path d="M117.871 211.132L120.101 213.289C119.786 212.357 119.599 210.368 121.368 209.869C123.579 209.245 118.43 207.303 117.849 206.102C117.269 204.901 121.456 205.767 121.854 203.921C122.251 202.074 118.717 202.278 118.807 200.427C118.896 198.575 122.974 198.513 122.158 197.175C121.341 195.838 119.275 196.199 119.22 194.61C119.176 193.338 120.481 192.514 121.14 192.26C121.297 192.351 121.56 192.4 121.357 191.867C121.103 191.201 118.638 191.158 118.057 189.957C117.477 188.755 122.026 188.966 121.518 187.634C121.009 186.301 118.454 185.86 117.71 184.391C116.966 182.923 121.697 183.931 121.188 182.598C120.782 181.532 120.003 180.989 119.665 180.851L118.596 181.098L119.63 182.042C117.859 182.055 114.515 182.404 115.299 183.688C116.278 185.293 118.454 185.86 118.944 186.663C119.433 187.465 115.21 187.79 115.247 188.849C115.284 189.909 117.859 190.88 118.113 191.546C118.367 192.212 115.939 193.229 116.519 194.431C117.1 195.632 119.42 195.937 119.53 196.865C119.639 197.794 115.887 198.391 115.997 199.319C116.106 200.248 120.022 202.168 119.588 202.955C119.153 203.742 114.314 204.055 114.895 205.257C115.475 206.458 120.008 208.389 119.41 208.909C118.932 209.324 118.184 210.564 117.871 211.132Z" fill="#315161"/>
<path d="M98.8019 206.138L101.63 207.775C101.153 207.325 100.357 206.138 100.994 204.984C101.791 203.542 103.368 204.628 104.165 203.185C104.962 201.743 101.988 200.368 101.426 199.697C100.864 199.025 105.378 200.427 104.652 199.488C103.927 198.548 98.5965 195.809 99.7921 194.771C100.988 193.733 106.352 193.031 105.482 192.354C104.611 191.677 99.6972 187.621 100.295 187.102C100.893 186.583 104.355 186.51 104.39 185.32C104.426 184.129 100.727 181.815 101.017 181.291C101.248 180.871 103.602 180.364 104.75 180.164L102.864 179.072C101.305 179.266 98.3333 179.841 98.9137 180.593C99.6392 181.532 102.649 183.966 102.36 184.491C102.07 185.015 97.3034 185.198 98.1922 186.404C99.081 187.611 103.27 190.727 102.835 191.514C102.401 192.301 96.4199 192.992 97.073 194.062C97.7261 195.132 101.987 198.118 101.607 198.244C101.226 198.37 98.2897 198.054 98.7795 198.857C99.2693 199.66 102.877 201.575 102.515 202.23C102.153 202.886 98.927 203.095 98.4925 203.882C98.1449 204.511 98.5539 205.648 98.8019 206.138Z" fill="#315161"/>
<path d="M90.6928 194.35L93.5212 195.987C93.0981 195.626 92.6177 194.356 94.0808 192.158C94.3222 191.721 94.2427 190.175 91.9937 187.489C92.1386 187.227 93.3697 184.998 94.0584 184.877L92.4085 183.922C91.4784 184.48 89.6584 185.86 89.8185 186.922C90.0186 188.249 91.3419 188.669 91.7778 190.132C92.2137 191.596 89.4775 192.608 90.6928 194.35Z" fill="#315161"/>
<path d="M134.494 173.154L137.413 175.19C140.955 188.487 147.283 217.241 144.258 225.872C142.696 230.328 141.951 232.474 141.651 233.357C139.825 231.952 136.147 229.066 135.886 228.64C135.56 228.105 138.493 223.92 138.181 217.163C137.869 210.407 137.924 181.023 134.494 173.154Z" fill="#C8D7DA"/>
<path d="M76.2292 211.067L83.8623 215.831C100.818 221.55 136.06 233.17 141.382 233.897L135.107 228.362C121.029 224.943 89.543 216.696 76.2292 211.067Z" fill="#9FB6BA"/>
<path d="M136.136 222.556C134.541 221.69 131.655 219.858 132.872 219.455C134.394 218.952 142.951 221.482 147.684 226.99C148.065 227.614 147.7 228.314 143.189 226.119L142.536 225.048C143.4 225.549 145.219 226.497 145.582 226.292C146.034 226.035 138.546 221.009 134.994 220.683C134.897 220.858 135.034 221.398 136.354 222.162L136.136 222.556Z" fill="#555E63"/>
<path d="M136.888 211.914C135.292 211.049 132.527 208.998 133.744 208.595C135.266 208.092 143.823 210.622 148.556 216.13C148.937 216.755 147.261 217.849 142.75 215.654L142.713 214.594C143.578 215.094 146.23 216.111 146.454 215.432C146.604 214.975 139.418 210.149 135.866 209.823C135.769 209.998 135.906 210.538 137.226 211.302L136.888 211.914Z" fill="#555E63"/>
<path d="M137.12 202.189C135.525 201.323 131.292 197.936 132.429 197.455C137.497 195.312 147.324 201.172 147.241 204.991C147.622 205.615 146.345 207.113 141.834 204.918L141.797 203.858C143.992 204.953 144.654 204.665 145.133 204.576C147.036 204.221 140.634 196.954 134.551 198.683C133.53 198.552 135.619 200.626 136.939 201.39L137.12 202.189Z" fill="#555E63"/>
<path d="M135.664 191.308C134.28 190.623 131.773 188.779 132.816 186.891C133.858 185.003 138.192 186.542 140.229 187.548C142.163 188.552 145.773 191.138 144.745 193.45C143.717 195.762 141.575 195.249 140.632 194.703L140.432 193.376C141.211 193.654 142.835 193.867 143.095 192.495C143.421 190.78 142.604 189.442 139.323 188.062C136.698 186.958 135.1 187.636 134.629 188.113C134.333 188.461 134.126 189.588 135.664 191.308Z" fill="#555E63"/>
<path d="M133.045 181.194C131.775 180.562 129.467 178.874 130.404 177.179C131.34 175.483 135.315 176.913 137.185 177.84C138.961 178.764 142.283 181.133 141.364 183.212C140.444 185.29 138.482 184.807 137.615 184.305L137.421 183.105C138.136 183.363 139.622 183.571 139.848 182.334C140.13 180.788 139.372 179.572 136.361 178.296C133.953 177.274 132.498 177.872 132.072 178.299C131.804 178.611 131.625 179.626 133.045 181.194Z" fill="#555E63"/>
</g>
<g filter="url(#filter5_d)">
<path d="M237.15 104.704C237.356 105.485 243.648 114.004 253.401 123.046C263.154 132.088 269.913 134.708 273.908 143.467C260.047 151.125 228.718 166.393 214.293 166.196C207.885 154.8 194.997 130.085 194.704 122.395L237.15 104.704Z" fill="white"/>
</g>
<g filter="url(#filter6_d)">
<path d="M286.414 97.6313C286.636 98.4715 293.401 107.632 303.889 117.355C314.376 127.078 321.645 129.895 325.94 139.314C311.035 147.549 277.347 163.967 261.836 163.755C254.945 151.5 241.086 124.924 240.771 116.655L286.414 97.6313Z" fill="white"/>
</g>
<g filter="url(#filter7_f)">
<path d="M97.4613 182.251C95.8475 184.194 92.4171 188.626 92.72 190.781C93.0987 193.475 105.736 199.312 114.941 200.487C125.238 201.802 111.4 187.05 97.4613 182.251Z" fill="#B4B9C7" fill-opacity="0.5"/>
</g>
<path d="M98.1612 181.623C97.6321 182.759 96.6534 185.771 96.971 188.736C100.51 189.907 109.721 193.49 118.254 198.46C119.223 197.316 121.148 194.354 121.099 191.654C114.656 187.95 101.048 180.758 98.1612 181.623Z" fill="#031CFF"/>
<g filter="url(#filter8_f)">
<path d="M97.5257 182.925C102.508 184.856 119.175 194.667 119.212 196.693L117.576 197.399L96.9642 188.337L97.5257 182.925Z" fill="#818FDC"/>
</g>
<g filter="url(#filter9_f)">
<path d="M174.928 198.335C173.314 200.278 169.884 204.71 170.187 206.865C170.565 209.559 183.203 215.396 192.408 216.571C202.705 217.886 188.867 203.134 174.928 198.335Z" fill="#A3AEC9" fill-opacity="0.5"/>
</g>
<path d="M175.626 197.707C175.097 198.843 174.118 201.855 174.436 204.82C177.975 205.99 187.186 209.574 195.719 214.544C196.688 213.4 198.613 210.437 198.564 207.737C192.121 204.033 178.513 196.842 175.626 197.707Z" fill="#F3F4FF"/>
<g filter="url(#filter10_f)">
<path d="M174.99 199.009C179.972 200.94 196.639 210.751 196.676 212.776L195.04 213.483L174.428 204.421L174.99 199.009Z" fill="#C1C9F2"/>
</g>
<g filter="url(#filter11_f)">
<path d="M338.68 176.668C336.507 177.917 331.787 180.854 331.34 182.983C330.782 185.643 340.653 195.609 348.887 199.983C358.097 204.876 350.123 186.123 338.68 176.668Z" fill="#593A59" fill-opacity="0.5"/>
</g>
<path d="M339.547 176.328C338.665 177.205 336.726 179.681 336.018 182.575C338.94 184.931 346.363 191.566 352.679 199.259C353.976 198.531 356.786 196.437 357.656 193.887C352.869 188.123 342.547 176.543 339.547 176.328Z" fill="#FC00E3"/>
<g filter="url(#filter12_f)">
<path d="M338.509 177.322C342.526 180.904 354.829 196.029 354.177 197.942L352.403 198.022L336.147 182.198L338.509 177.322Z" fill="#A228AD"/>
</g>
<g filter="url(#filter13_f)">
<path d="M188.876 127.248C187.589 129.433 184.901 134.372 185.539 136.449C186.337 139.045 199.728 142.722 208.998 142.364C219.367 141.964 203.388 129.686 188.876 127.248Z" fill="#403306" fill-opacity="0.5"/>
</g>
<path d="M189.468 126.514C189.125 127.721 188.633 130.856 189.413 133.73C193.09 134.301 202.745 136.319 211.948 139.817C212.724 138.528 214.158 135.287 213.685 132.63C206.743 130.037 192.181 125.184 189.468 126.514Z" fill="#884D21"/>
<g filter="url(#filter14_f)">
<path d="M189.044 127.903C194.265 128.987 212.259 135.922 212.614 137.915L211.11 138.882L189.342 133.337L189.044 127.903Z" fill="#4D330B"/>
</g>
<g filter="url(#filter15_f)">
<path d="M167.951 122.707C165.46 122.64 159.937 122.687 158.488 124.281C156.677 126.273 160.167 140.009 165.049 148.084C170.51 157.116 173.047 136.829 167.951 122.707Z" fill="#262D3F" fill-opacity="0.5"/>
</g>
<path d="M168.867 122.87C167.671 123.161 164.766 124.271 162.71 126.384C164.041 129.94 167.095 139.531 168.669 149.451C170.147 149.505 173.608 149.181 175.631 147.447C174.405 139.987 171.336 124.628 168.867 122.87Z" fill="#616267"/>
<g filter="url(#filter16_f)">
<path d="M167.478 123.179C169.135 128.362 172.131 147.805 170.614 149.105L169.05 148.244L163.009 126.128L167.478 123.179Z" fill="#3B3C41"/>
</g>
<g filter="url(#filter17_f)">
<path d="M343.367 139.089C341.753 141.033 338.322 145.464 338.625 147.619C339.004 150.313 351.642 156.15 360.847 157.326C371.144 158.641 357.305 143.888 343.367 139.089Z" fill="#667496" fill-opacity="0.5"/>
</g>
<path d="M344.065 138.461C343.536 139.597 342.558 142.609 342.875 145.574C346.414 146.745 355.626 150.328 364.159 155.298C365.127 154.154 367.052 151.191 367.003 148.491C360.56 144.788 346.952 137.596 344.065 138.461Z" fill="#031CFF"/>
<g filter="url(#filter18_f)">
<path d="M343.43 139.763C348.412 141.694 365.08 151.506 365.116 153.531L363.48 154.237L342.869 145.175L343.43 139.763Z" fill="#818FDC"/>
</g>
<path d="M44.5006 155.818V178.563L123.623 248.693L202.745 193.726V163.4L44.5006 155.818Z" fill="white"/>
<path d="M204.462 167.191V193.726L123.62 250.588L46.2174 178.563V155.818" stroke="#FBAF1C" stroke-width="1.5"/>
<path d="M44.5019 155.819L75.4628 138.761L206.187 169.087L125.344 224.054L44.5019 155.819Z" fill="#FBAF1C"/>
<path d="M223.385 125.493V150.133L156.303 195.623L73.7405 155.819L223.385 125.493Z" fill="white"/>
<path d="M223.385 125.493V152.028L152.863 197.518L63.4202 152.028" stroke="#B4E825" stroke-width="1.5"/>
<path d="M226.826 125.492L187.265 106.538C151.144 117.911 79.246 140.656 80.622 140.656C81.998 140.656 129.357 163.4 152.864 174.773L226.826 125.492Z" fill="#B4E825"/>
<path d="M34.1771 98.9569L204.462 95.1661V119.806L74.6488 155.819L34.1771 123.597V98.9569Z" fill="white"/>
<path d="M30.7379 98.956L113.3 76.2112L209.623 95.1652L72.0191 131.178L30.7379 98.956Z" fill="#64A1D1"/>
<path d="M54.8199 57.2578V87.5841L130.426 106.538L213.064 92.7396V57.2578H54.8199Z" fill="white"/>
<path d="M53.1015 89.4797L130.504 104.643L214.786 95.1659V59.1533H145.984" stroke="#F36B21" stroke-width="1.5"/>
<path d="M54.8212 57.2579L130.503 42.0947L216.506 57.2579L213.066 62.9441L130.503 78.1073L54.8212 57.2579Z" fill="#F36B21"/>
<path d="M34.1816 98.957V125.493L72.0227 155.819L206.187 121.702" stroke="#64A1D1" stroke-width="1.5"/>
<path d="M482.44 323.72V342.644C482.44 343.906 498.116 344.221 505.953 344.221C504.647 339.227 502.191 327.82 502.818 322.143L482.44 323.72Z" fill="#FEC997"/>
<path d="M567.083 325.297L571.784 342.645C572.46 343.664 557.036 342.669 549.843 345.799C549.127 340.824 548.672 323.8 545.92 318.989L567.083 325.297Z" fill="#FEC997"/>
<path d="M555.332 238.558C557.945 264.317 564.11 316.307 567.873 318.2H571.008V329.239H545.143L541.224 322.142L545.143 320.565C540.179 300.852 528.057 260.48 519.279 256.695C510.501 252.91 507.784 269.837 507.522 278.773L504.387 320.565H507.522V329.239L477.739 330.816V320.565H480.874L477.739 244.078L555.332 238.558Z" fill="#275A8A"/>
<g opacity="0.8" filter="url(#filter19_f)">
<path d="M498.9 161.283C503.08 167.328 515.359 175.792 531.035 161.283L538.872 242.501C529.728 246.97 508.149 253.225 494.981 242.501C494.981 239.978 497.594 187.304 498.9 161.283Z" fill="#062534"/>
</g>
<g opacity="0.8" filter="url(#filter20_f)">
<path d="M531.659 163.649C534.272 164.7 540.594 166.645 544.983 166.014C549.372 165.383 562.487 159.443 568.496 156.552C571.631 164.7 569.75 173.584 568.496 178.631C561.442 181.522 549.999 185.254 544.983 183.362L559.091 250.387C551.253 252.752 531.975 257.168 526.332 255.906C525.026 229.622 524.762 176.896 525.389 176.265C526.016 175.634 529.83 167.591 531.659 163.649Z" fill="#062534"/>
</g>
<g opacity="0.8" filter="url(#filter21_f)">
<path d="M487.769 164.437C475.228 164.437 466.868 159.18 464.255 156.552C461.12 163.911 464.259 172.48 466.767 179.419C470.163 181.522 477.736 185.57 487.769 184.939L471.468 252.752C480.873 254.329 503.13 257.799 508.146 255.906L507.362 174.688L501.876 161.898C501.38 162.991 498.167 164.437 487.769 164.437Z" fill="#062534"/>
</g>
<path d="M499.687 136.838C501.515 142.621 504.077 155.448 502.823 160.494C501.569 165.541 500.47 173.636 499.687 177.053H532.605L527.902 160.494C527.641 154.974 526.648 142.831 527.902 138.415L499.687 136.838Z" fill="#EFA583"/>
<path d="M498.9 156.552C503.08 162.597 515.359 171.061 531.035 156.552L538.872 237.77C529.728 242.238 508.149 248.494 494.981 237.77C494.981 235.247 497.594 182.573 498.9 156.552Z" fill="white"/>
<path d="M575.458 171.315C586.929 166.211 610.838 154.434 614.706 148.158C619.362 148.87 629.385 149.96 632.225 148.624C635.775 146.955 644.754 149.984 644.981 148.893C645.944 144.262 639.646 143.742 631.975 142.127C635.269 140.403 647.312 134.882 648.191 133.456C653.026 125.612 635.56 136.437 631.439 133.152C630.065 132.057 649.672 122.489 645.871 117.661C644.117 115.432 628.887 126.17 626.586 125.686C624.285 125.201 635.934 111.541 636.576 108.454C636.736 107.682 636.379 106.318 633.668 107.036C630.956 107.754 619.931 119.183 614.758 124.807C610.761 124.771 611.702 108.696 608.762 107.433C605.087 105.853 604.107 129.815 604.999 133.226C605.713 135.954 604.762 136.935 604.197 137.085L567 154.228L575.458 171.315Z" fill="#FDBB99"/>
<g filter="url(#filter22_f)">
<ellipse rx="8.62365" ry="8.67162" transform="matrix(0.978553 0.205996 -0.203619 0.97905 619.525 136.542)" fill="#F4ECC5" fill-opacity="0.5"/>
</g>
<path d="M460.041 171.89C448.97 167.65 425.775 157.733 421.565 151.985C417.363 152.904 408.271 154.46 405.523 153.342C402.087 151.945 394.157 155.287 393.835 154.264C392.465 149.923 398.195 149.101 405.072 147.169C401.865 145.707 390.225 141.102 389.268 139.796C384.006 132.611 401.182 141.961 404.623 138.632C405.77 137.522 386.76 129.475 389.744 124.698C391.122 122.493 406.235 131.878 408.298 131.299C410.362 130.719 398.231 118.376 397.317 115.483C397.089 114.759 397.274 113.447 399.84 113.987C402.406 114.526 413.73 124.785 419.071 129.847C422.737 129.605 420.189 114.412 422.757 113.061C425.967 111.371 429.378 134.039 428.916 137.32C428.546 139.944 429.523 140.824 430.057 140.937L466.018 155.247L460.041 171.89Z" fill="#FDBB99"/>
<g filter="url(#filter23_f)">
<ellipse rx="7.85761" ry="8.34436" transform="matrix(-0.962725 0.270482 0.300973 0.953633 415.923 141.223)" fill="#F4ECC5" fill-opacity="0.5"/>
</g>
<path d="M506.461 339.346L507.776 349.258L506.647 359.091C494.049 361.974 465.319 365.98 451.189 358.945C454.886 353.855 469.673 348.593 482.057 348.993L480.77 338.934C484.871 338.244 490.034 337.829 489.193 343.723L506.461 339.346Z" fill="#710202"/>
<path d="M505.041 334.297L507.171 343.125L505.205 354.337C492.784 357.275 483.776 360.735 469.854 353.607C473.503 348.438 473.948 346.226 486.156 346.62L479.18 338.471C483.223 337.766 483.196 338.6 486.409 338.704L505.041 334.297Z" fill="#FBFF2F"/>
<g filter="url(#filter24_f)">
<path d="M506.544 337.685L507.831 347.744L506.709 357.726C494.287 360.664 465.964 364.758 452.042 357.63C455.69 352.461 466.04 342.221 478.248 342.615L478.434 336.778C482.476 336.073 490.353 336.161 489.519 342.144L506.544 337.685Z" fill="#E0032B"/>
</g>
<g filter="url(#filter25_f)">
<path d="M478.46 342.597C465.191 342.597 456.068 350.774 452.751 356.782C453.857 358.172 463.857 362.737 463.532 360.119C462.703 353.444 469.337 346.769 478.46 342.597Z" fill="#940202"/>
</g>
<path d="M475.015 342.922C477.112 344.381 481.141 347.461 480.477 348.107" stroke="white"/>
<path d="M470.975 343.627C473.349 344.816 477.925 347.524 477.24 348.838" stroke="white"/>
<path d="M546.833 337.77L545.518 347.681L546.647 357.514C559.245 360.397 587.974 364.404 602.105 357.368C598.408 352.279 583.621 347.017 571.236 347.417L572.523 337.358C568.423 336.667 563.26 336.252 564.1 342.147L546.833 337.77Z" fill="#720202"/>
<path d="M548.252 332.72L546.122 341.548L548.088 352.761C560.509 355.699 569.517 359.158 583.439 352.03C579.79 346.861 579.344 344.649 567.137 345.044L574.112 336.894C570.07 336.19 570.097 337.024 566.884 337.127L548.252 332.72Z" fill="#FBFF2F"/>
<g filter="url(#filter26_f)">
<path d="M546.758 336.109L545.471 346.168L546.594 356.149C559.015 359.087 587.338 363.181 601.261 356.053C597.612 350.884 587.262 340.644 575.055 341.038L574.868 335.201C570.826 334.497 562.95 334.584 563.784 340.568L546.758 336.109Z" fill="#E0032B"/>
</g>
<g filter="url(#filter27_f)">
<path d="M574.839 341.021C588.108 341.021 597.231 349.198 600.548 355.205C599.442 356.596 589.441 361.161 589.767 358.543C590.596 351.868 583.961 345.193 574.839 341.021Z" fill="#940202"/>
</g>
<path d="M578.278 341.345C576.181 342.804 572.152 345.884 572.816 346.53" stroke="white"/>
<path d="M582.319 342.05C579.945 343.24 575.369 345.948 576.054 347.261" stroke="white"/>
<path d="M531.668 145.581C540.028 142.689 557.689 133.597 563.169 128.165C568.805 122.577 589.347 123.434 592.169 104.509C594.52 88.7383 589.034 86.3727 581.98 79.276C576.337 73.5986 578.172 54.3743 578.694 41.495C570.073 33.084 545.776 16.5775 517.56 17.8391C489.345 19.1008 462.435 35.1867 452.508 43.072V81.7099C452.508 84.0755 444.821 83.2185 440.902 96.6236C436.983 110.029 447.322 121 464.414 124.222C470.835 128.885 489.809 145.581 500.468 145.581C505.693 148.472 519.755 153.781 531.668 145.581Z" fill="#FDBE97"/>
<path d="M496.55 113.971C496.811 112.131 498.431 108.53 502.82 107.269C508.306 105.692 527.901 105.691 531.036 107.269C533.176 108.345 536.522 109.634 537.306 112C538.09 114.365 532.949 129.636 517.274 129.636C499.179 129.636 496.55 115.073 496.55 113.971Z" fill="#6B0000"/>
<path d="M502.818 106.874L507.521 106.086H516.926H524.764L530.25 106.874C529.205 108.188 523.196 112.394 516.926 112.394C509.376 112.394 504.647 108.714 502.818 106.874Z" fill="white"/>
<path d="M508.303 128.164L512.222 129.742H516.924H521.627L525.546 128.164C524.948 127.179 520.731 123.433 517.148 123.433C512.834 123.433 509.348 126.785 508.303 128.164Z" fill="#DB5D46"/>
<g filter="url(#filter28_f)">
<path d="M503.454 84.4434C504.187 74.8624 502.897 68.9669 497.751 65.243C491.318 60.588 480.215 62.1628 476.172 66.913C472.287 71.478 473.421 78.4964 474.886 82.1815C477.816 86.6033 480.182 88.0995 483.675 88.8145C487.168 89.5294 499.059 86.6569 503.454 84.4434Z" fill="#5E1705"/>
</g>
<g filter="url(#filter29_f)">
<path d="M504.485 87.3999C505.223 77.5555 503.825 72.1262 498.738 68.3072C492.378 63.5334 481.159 65.4877 477.151 70.3734C473.3 75.0688 474.771 81.3306 476.215 85.1147C479.11 89.6537 481.449 91.1877 484.905 91.9175C488.361 92.6473 500.133 89.68 504.485 87.3999Z" fill="white"/>
</g>
<ellipse cx="490.994" cy="80.4887" rx="8.30144" ry="8.35186" fill="#072286"/>
<g filter="url(#filter30_f)">
<ellipse cx="491.899" cy="82.9327" rx="4.84251" ry="5.56791" fill="#010020"/>
</g>
<path d="M498.307 77.8092C500.307 81.8458 498.642 86.7679 494.578 88.8C490.514 90.8321 485.601 89.1995 483.6 85.1629C481.6 81.1264 483.265 76.2042 487.329 74.1721C491.393 72.1401 496.306 73.7727 498.307 77.8092Z" stroke="#040E6D"/>
<g filter="url(#filter31_f)">
<path d="M489.903 78.0606C489.903 80.1486 487.972 81.5406 486.444 81.5406C484.916 81.5406 480.909 79.4526 481.601 76.6687C481.601 75.1311 484.916 73.1887 486.444 73.1887C487.972 73.1887 489.903 76.5231 489.903 78.0606Z" fill="white"/>
</g>
<g filter="url(#filter32_f)">
<path d="M535.625 84.9824C541.155 87.0917 553.587 90.227 559.069 85.8941C565.923 80.4779 565.808 74.681 562.722 68.544C560.252 63.6344 552.678 62.9377 549.026 62.8699C546.65 63.2232 539.563 65.0491 537.745 68.544C535.927 72.0389 536.366 80.1085 535.625 84.9824Z" fill="#5E1705"/>
</g>
<g filter="url(#filter33_f)">
<path d="M534.071 88.3022C539.45 90.3541 550.957 92.5192 556.877 89.1891C564.614 84.8366 564.481 77.4017 561.478 71.4316C559.076 66.6556 552.49 65.9778 548.938 65.9119C543.453 66.7005 541.131 68.4352 538.749 71.4316C535.614 75.3743 534.791 83.5609 534.071 88.3022Z" fill="white"/>
</g>
<ellipse cx="547.426" cy="80.4885" rx="8.30144" ry="8.35186" fill="#07248C"/>
<g filter="url(#filter34_f)">
<ellipse cx="548.333" cy="82.9329" rx="4.84251" ry="5.56791" fill="#010020"/>
</g>
<path d="M554.74 76.2323C556.741 80.2688 555.076 85.191 551.012 87.2231C546.948 89.2551 542.034 87.6225 540.034 83.586C538.034 79.5494 539.699 74.6273 543.763 72.5952C547.827 70.5631 552.74 72.1958 554.74 76.2323Z" stroke="#040E6D"/>
<g filter="url(#filter35_f)">
<path d="M546.337 78.061C546.337 80.1489 544.406 81.5409 542.878 81.5409C541.349 81.5409 537.343 79.453 538.035 76.669C538.035 75.1315 541.35 73.1891 542.878 73.1891C544.406 73.1891 546.337 76.5234 546.337 78.061Z" fill="white"/>
</g>
<g filter="url(#filter36_f)">
<path d="M523.378 98.572C523.427 96.8997 522.814 95.2762 521.674 94.0586C520.533 92.841 518.959 92.1291 517.297 92.0795C515.634 92.0299 514.021 92.6466 512.811 93.794C511.6 94.9414 510.893 96.5255 510.843 98.1978L512.603 98.2504C512.638 97.0475 513.147 95.908 514.018 95.0827C514.888 94.2574 516.049 93.8138 517.244 93.8495C518.44 93.8852 519.573 94.3972 520.393 95.273C521.213 96.1488 521.654 97.3166 521.619 98.5195L523.378 98.572Z" fill="#CC775F"/>
</g>
<g filter="url(#filter37_f)">
<path d="M449.524 86.3725C445.605 89.5266 442.667 101.943 442.591 104.216C442.533 105.978 443.99 114.848 451.567 118.986C459.144 123.124 469.682 125.302 467.552 123.433C462.499 118.999 455.795 98.9889 449.524 86.3725Z" fill="#E99B7C"/>
</g>
<g filter="url(#filter38_f)">
<path d="M463.535 118.702C464.112 114.051 462.15 106.891 456.611 102.108C451.072 97.3239 449.11 100.763 447.956 104.75C448.245 109.4 451.764 118.702 463.535 118.702Z" fill="#E48E5B" fill-opacity="0.5"/>
</g>
<g filter="url(#filter39_f)">
<path d="M459.616 116.852C460.601 115.413 461.829 111.778 458.87 108.748C455.91 105.719 452.628 107.095 451.357 108.162C450.933 109.819 451.992 113.878 459.616 116.852Z" fill="#E4AD8C"/>
</g>
<g filter="url(#filter40_f)">
<path d="M565.52 125.011C570.222 123.171 580.74 118.931 582.762 117.914C584.33 117.125 591.384 111.606 591.384 102.932C591.384 94.2582 589.816 87.95 587.465 86.3729C585.584 85.1113 571.528 111.343 565.52 125.011Z" fill="#E99B7C"/>
</g>
<g filter="url(#filter41_f)">
<path d="M571.733 114.868C575.487 114.619 581.682 112.824 584.33 106.875C586.978 100.925 585.326 98.5987 581.978 98.2008C578.395 99.254 573.356 103.72 571.733 114.868Z" fill="#E59565" fill-opacity="0.8"/>
</g>
<g filter="url(#filter42_f)">
<path d="M573.36 112.394C574.682 113.686 576.191 113.028 580.065 109.72C583.94 106.412 583.183 102.373 582.321 100.767C580.644 100.13 578.187 103.494 573.36 112.394Z" fill="#F3A97D"/>
</g>
<path d="M572.623 110.981C578.11 103.885 588.926 87.641 588.299 79.4403C590.389 67.8752 592.374 41.9063 583.596 30.5515C572.623 16.358 566.353 7.68419 541.273 3.74155C521.208 0.587436 502.084 2.42734 495.03 3.74155C481.445 5.31861 453.177 14.1501 448.788 36.8597C443.302 65.2468 447.22 89.6911 460.545 108.616C460.022 100.993 459.29 83.856 460.545 76.2862C462.112 66.8238 460.545 51.8418 460.545 50.2647C460.545 48.6877 471.517 51.0532 477.004 32.9171C478.31 36.0712 480.139 43.168 477.004 46.3221C483.796 43.168 499.576 37.4906 508.354 40.0139C509.138 38.174 510.235 33.3902 508.354 28.9745C510.706 30.5515 515.252 34.9673 514.625 40.0139C526.12 39.2253 550.051 38.1214 553.813 40.0139C553.813 36.5969 553.499 28.8168 552.245 25.0318C554.335 29.5001 558.359 39.2253 557.732 42.3794L564.786 44.745C565.569 42.6423 567.137 37.6483 567.137 34.4942C568.443 37.9111 570.899 45.0604 570.272 46.3221C569.645 47.5837 573.146 49.4762 574.975 50.2647C575.497 68.138 575.758 105.304 572.623 110.981Z" fill="#B75731"/>
<g filter="url(#filter43_f)">
<path d="M578.064 99.7775C582.792 93.7184 586.442 73.6609 585.902 66.6593C587.703 56.7853 583.163 36.0713 575.598 26.3768C566.142 14.2586 560.739 6.85306 539.126 3.4869C521.835 0.793978 505.355 2.36485 499.276 3.4869C487.569 4.83337 459.715 19.3476 453.443 34.4555C443.981 57.2461 445.095 77.3117 456.577 93.4693C456.127 86.9614 457.85 71.5453 458.931 65.0823C460.282 57.0035 455.883 50.4134 458.931 47.7346C460.06 46.742 476.174 38.4949 476.174 27.2329C477.3 29.9258 482.794 40.5146 480.093 43.2075C485.946 40.5146 499.96 36.3406 507.525 38.4949C508.2 36.9241 506.011 29.4259 504.39 25.6558C506.416 27.0023 517.47 32.1666 516.93 36.4752C526.836 35.802 547.39 34.8595 550.632 36.4752C550.632 33.5579 550.145 21.7906 549.064 18.5591C556.902 23.2903 560.578 38.7335 560.037 41.4264L563.956 43.792C564.632 41.9967 567.875 31.5029 567.875 28.81C569.001 31.7273 573.118 45.0804 572.578 46.1576C572.037 47.2348 576.488 45.4844 578.064 46.1576C578.514 61.4175 580.766 94.9302 578.064 99.7775Z" fill="#953C19"/>
</g>
<path d="M501.511 51.0438C502.209 50.1776 501.891 49.1413 501.267 48.691C494.451 43.769 485.188 45.6245 479.278 49.4172C474.549 52.4513 477.425 53.7524 479.298 54.084C479.996 53.2178 481.688 51.3837 484.117 50.494C487.154 49.382 493.472 49.5106 495.031 49.3467C496.59 49.1828 498.072 49.6437 498.622 50.4667C499.06 51.121 500.814 51.91 501.511 51.0438Z" fill="#9E3B15"/>
<path d="M563.66 51.3621C564.502 50.637 564.375 49.5598 563.843 49.0036C558.023 42.9239 548.579 43.0656 542.084 45.7217C536.889 47.8467 539.484 49.6489 541.266 50.3154C542.108 49.5903 544.102 48.0939 546.651 47.6604C549.837 47.1184 556.028 48.393 557.591 48.5152C559.154 48.6373 560.529 49.36 560.922 50.2695C561.235 50.9925 562.819 52.0872 563.66 51.3621Z" fill="#9E3B15"/>
<path d="M511.221 80.0641C511.221 96.5018 497.978 109.817 481.654 109.817C465.33 109.817 452.087 96.5018 452.087 80.0641C452.087 63.6265 465.33 50.3115 481.654 50.3115C497.978 50.3115 511.221 63.6265 511.221 80.0641Z" stroke="#F74444" stroke-width="2"/>
<path d="M586.462 80.0644C586.462 96.502 573.219 109.817 556.895 109.817C540.571 109.817 527.328 96.502 527.328 80.0644C527.328 63.6267 540.571 50.3118 556.895 50.3118C573.219 50.3118 586.462 63.6267 586.462 80.0644Z" stroke="#F74444" stroke-width="2"/>
<path d="M529.463 87.1613C526.328 85.5842 518.02 83.3763 509.869 87.1613" stroke="#F74444" stroke-width="2"/>
<g filter="url(#filter44_f)">
<ellipse rx="8.62464" ry="5.51768" transform="matrix(0.968777 -0.247935 0.24513 0.96949 481.656 100.566)" fill="#FF809A"/>
</g>
<g filter="url(#filter45_f)">
<ellipse rx="5.48841" ry="3.9412" transform="matrix(0.968777 -0.247935 0.24513 0.96949 481.654 100.565)" fill="#FDB4C3" fill-opacity="0.8"/>
</g>
<g filter="url(#filter46_f)">
<ellipse rx="8.62296" ry="3.94196" transform="matrix(0.985297 0.170851 -0.168853 0.985641 555.469 99.0005)" fill="#FF809A"/>
</g>
<g filter="url(#filter47_f)">
<ellipse rx="5.48734" ry="3.94196" transform="matrix(0.985297 0.170851 -0.168853 0.985641 555.201 100.555)" fill="#FDB4C3" fill-opacity="0.8"/>
</g>
<path d="M531.66 158.129C534.272 159.18 540.595 161.125 544.984 160.495C549.373 159.864 562.488 153.924 568.497 151.032C571.632 159.18 577.589 176.738 576.335 181.785C569.281 184.676 553.919 189.986 548.903 188.093L559.092 244.867C551.254 247.233 534.168 251.648 528.525 250.387C527.218 224.103 524.763 171.376 525.39 170.745C526.017 170.115 529.831 162.072 531.66 158.129Z" fill="#37B7F4"/>
<path d="M535.133 169.042C537.452 169.957 543.063 171.652 546.959 171.102C550.854 170.553 566.468 163.801 571.802 161.283C574.584 168.38 577.617 177.389 576.504 181.785C570.243 184.303 552.741 189.741 548.289 188.093L559.481 244.596C552.524 246.657 533.704 251.486 528.695 250.387C527.536 227.491 534.861 183.131 526.332 178.63C525.462 178.171 533.509 172.476 535.133 169.042Z" fill="url(#paint0_linear)" fill-opacity="0.5"/>
<path d="M538.924 180.908C540.796 181.669 545.327 183.076 548.473 182.62C551.619 182.163 569.835 173.625 574.142 171.534C576.389 177.427 576.608 178.134 575.709 181.784C570.654 183.876 552.068 189.461 548.473 188.093L558.466 244.867C552.849 246.578 537.43 251.299 533.386 250.386C532.45 231.375 538.704 192.608 531.818 188.871C531.115 188.489 537.613 183.76 538.924 180.908Z" fill="url(#paint1_linear)" fill-opacity="0.5"/>
<path d="M545.24 200.767C546.495 201.283 546.955 186.825 549.063 186.516C551.172 186.206 572.825 177.685 575.711 176.265C577.217 180.266 576.314 179.306 575.711 181.784C572.323 183.204 550.653 188.381 548.244 187.452L559.249 244.078C555.484 245.24 543.185 250.217 540.475 249.598C539.847 236.689 545.093 208.71 540.477 206.173C540.006 205.914 544.362 202.703 545.24 200.767Z" fill="url(#paint2_linear)" fill-opacity="0.5"/>
<path d="M486.2 158.918C473.66 158.918 465.3 153.661 462.687 151.032C459.552 158.392 453.909 174.846 456.417 181.785C459.813 183.888 469.114 187.935 479.146 187.305L472.092 248.021C481.497 249.598 501.562 252.279 506.578 250.387L505.794 169.168L500.308 156.379C499.812 157.472 496.598 158.918 486.2 158.918Z" fill="#38B8F9"/>
<path d="M480.089 188.093L472.251 248.021C481.656 249.598 502.504 253.068 507.521 251.175L505.328 177.054L480.089 188.093Z" fill="url(#paint3_linear)"/>
<path d="M484.009 201.45L477.739 248.28C485.263 249.512 501.942 252.224 505.955 250.745L504.201 192.824L484.009 201.45Z" fill="url(#paint4_linear)"/>
<path d="M490.453 212.202L485.576 248.906C491.428 249.872 504.401 251.997 507.522 250.838L506.158 205.44L490.453 212.202Z" fill="url(#paint5_linear)"/>
<path d="M503.444 151.032C502.661 154.712 502.19 163.176 506.579 167.591L494.039 178.631V158.918C494.039 156.552 497.958 151.032 503.444 151.032Z" fill="#208DB6"/>
<path d="M541.224 322.142C545.142 318.2 564.11 316.938 571.007 318.2V330.816L545.142 329.239L541.224 322.142Z" fill="#393954"/>
<path d="M477.739 320.566C483.226 318.989 500.625 318.198 507.522 319.46V330.499L477.739 330.817V320.566Z" fill="#393954"/>
<path d="M526.954 150.243C527.999 154.449 528.835 164.121 523.819 169.168L537.927 180.207V160.494C537.666 158.129 535.106 152.767 526.954 150.243Z" fill="#208DB6"/>
<defs>
<filter id="filter0_f" x="89.5469" y="198.66" width="337.086" height="108.953" filterUnits="userSpaceOnUse" color-interpolation-filters="sRGB">
<feFlood flood-opacity="0" result="BackgroundImageFix"/>
<feBlend mode="normal" in="SourceGraphic" in2="BackgroundImageFix" result="shape"/>
<feGaussianBlur stdDeviation="6" result="effect1_foregroundBlur"/>
</filter>
<filter id="filter1_f" x="0.938477" y="144.173" width="114.045" height="160.484" filterUnits="userSpaceOnUse" color-interpolation-filters="sRGB">
<feFlood flood-opacity="0" result="BackgroundImageFix"/>
<feBlend mode="normal" in="SourceGraphic" in2="BackgroundImageFix" result="shape"/>
<feGaussianBlur stdDeviation="6" result="effect1_foregroundBlur"/>
</filter>
<filter id="filter2_i" x="6.14355" y="141.497" width="100.765" height="136.434" filterUnits="userSpaceOnUse" color-interpolation-filters="sRGB">
<feFlood flood-opacity="0" result="BackgroundImageFix"/>
<feBlend mode="normal" in="SourceGraphic" in2="BackgroundImageFix" result="shape"/>
<feColorMatrix in="SourceAlpha" type="matrix" values="0 0 0 0 0 0 0 0 0 0 0 0 0 0 0 0 0 0 127 0" result="hardAlpha"/>
<feOffset dy="4"/>
<feGaussianBlur stdDeviation="5"/>
<feComposite in2="hardAlpha" operator="arithmetic" k2="-1" k3="1"/>
<feColorMatrix type="matrix" values="0 0 0 0 0 0 0 0 0 0 0 0 0 0 0 0 0 0 0.25 0"/>
<feBlend mode="normal" in2="shape" result="effect1_innerShadow"/>
</filter>
<filter id="filter3_d" x="289.204" y="152.004" width="93.1688" height="74.1255" filterUnits="userSpaceOnUse" color-interpolation-filters="sRGB">
<feFlood flood-opacity="0" result="BackgroundImageFix"/>
<feColorMatrix in="SourceAlpha" type="matrix" values="0 0 0 0 0 0 0 0 0 0 0 0 0 0 0 0 0 0 127 0"/>
<feOffset dy="4"/>
<feGaussianBlur stdDeviation="2"/>
<feColorMatrix type="matrix" values="0 0 0 0 0 0 0 0 0 0 0 0 0 0 0 0 0 0 0.25 0"/>
<feBlend mode="normal" in2="BackgroundImageFix" result="effect1_dropShadow"/>
<feBlend mode="normal" in="SourceGraphic" in2="effect1_dropShadow" result="shape"/>
</filter>
<filter id="filter4_d" x="64.5049" y="166.497" width="92.1039" height="79.3999" filterUnits="userSpaceOnUse" color-interpolation-filters="sRGB">
<feFlood flood-opacity="0" result="BackgroundImageFix"/>
<feColorMatrix in="SourceAlpha" type="matrix" values="0 0 0 0 0 0 0 0 0 0 0 0 0 0 0 0 0 0 127 0"/>
<feOffset dy="4"/>
<feGaussianBlur stdDeviation="4"/>
<feColorMatrix type="matrix" values="0 0 0 0 0 0 0 0 0 0 0 0 0 0 0 0 0 0 0.25 0"/>
<feBlend mode="normal" in2="BackgroundImageFix" result="effect1_dropShadow"/>
<feBlend mode="normal" in="SourceGraphic" in2="effect1_dropShadow" result="shape"/>
</filter>
<filter id="filter5_d" x="190.704" y="104.704" width="87.2036" height="69.4942" filterUnits="userSpaceOnUse" color-interpolation-filters="sRGB">
<feFlood flood-opacity="0" result="BackgroundImageFix"/>
<feColorMatrix in="SourceAlpha" type="matrix" values="0 0 0 0 0 0 0 0 0 0 0 0 0 0 0 0 0 0 127 0"/>
<feOffset dy="4"/>
<feGaussianBlur stdDeviation="2"/>
<feColorMatrix type="matrix" values="0 0 0 0 0 0 0 0 0 0 0 0 0 0 0 0 0 0 0.25 0"/>
<feBlend mode="normal" in2="BackgroundImageFix" result="effect1_dropShadow"/>
<feBlend mode="normal" in="SourceGraphic" in2="effect1_dropShadow" result="shape"/>
</filter>
<filter id="filter6_d" x="236.771" y="97.6313" width="93.1688" height="74.1255" filterUnits="userSpaceOnUse" color-interpolation-filters="sRGB">
<feFlood flood-opacity="0" result="BackgroundImageFix"/>
<feColorMatrix in="SourceAlpha" type="matrix" values="0 0 0 0 0 0 0 0 0 0 0 0 0 0 0 0 0 0 127 0"/>
<feOffset dy="4"/>
<feGaussianBlur stdDeviation="2"/>
<feColorMatrix type="matrix" values="0 0 0 0 0 0 0 0 0 0 0 0 0 0 0 0 0 0 0.25 0"/>
<feBlend mode="normal" in2="BackgroundImageFix" result="effect1_dropShadow"/>
<feBlend mode="normal" in="SourceGraphic" in2="effect1_dropShadow" result="shape"/>
</filter>
<filter id="filter7_f" x="88.7012" y="178.251" width="33.816" height="26.3193" filterUnits="userSpaceOnUse" color-interpolation-filters="sRGB">
<feFlood flood-opacity="0" result="BackgroundImageFix"/>
<feBlend mode="normal" in="SourceGraphic" in2="BackgroundImageFix" result="shape"/>
<feGaussianBlur stdDeviation="2" result="effect1_foregroundBlur"/>
</filter>
<filter id="filter8_f" x="92.9639" y="178.925" width="30.2479" height="22.4741" filterUnits="userSpaceOnUse" color-interpolation-filters="sRGB">
<feFlood flood-opacity="0" result="BackgroundImageFix"/>
<feBlend mode="normal" in="SourceGraphic" in2="BackgroundImageFix" result="shape"/>
<feGaussianBlur stdDeviation="2" result="effect1_foregroundBlur"/>
</filter>
<filter id="filter9_f" x="166.168" y="194.335" width="33.816" height="26.3193" filterUnits="userSpaceOnUse" color-interpolation-filters="sRGB">
<feFlood flood-opacity="0" result="BackgroundImageFix"/>
<feBlend mode="normal" in="SourceGraphic" in2="BackgroundImageFix" result="shape"/>
<feGaussianBlur stdDeviation="2" result="effect1_foregroundBlur"/>
</filter>
<filter id="filter10_f" x="170.428" y="195.009" width="30.2479" height="22.4741" filterUnits="userSpaceOnUse" color-interpolation-filters="sRGB">
<feFlood flood-opacity="0" result="BackgroundImageFix"/>
<feBlend mode="normal" in="SourceGraphic" in2="BackgroundImageFix" result="shape"/>
<feGaussianBlur stdDeviation="2" result="effect1_foregroundBlur"/>
</filter>
<filter id="filter11_f" x="327.317" y="172.668" width="29.5905" height="32.1159" filterUnits="userSpaceOnUse" color-interpolation-filters="sRGB">
<feFlood flood-opacity="0" result="BackgroundImageFix"/>
<feBlend mode="normal" in="SourceGraphic" in2="BackgroundImageFix" result="shape"/>
<feGaussianBlur stdDeviation="2" result="effect1_foregroundBlur"/>
</filter>
<filter id="filter12_f" x="332.146" y="173.322" width="26.055" height="28.7003" filterUnits="userSpaceOnUse" color-interpolation-filters="sRGB">
<feFlood flood-opacity="0" result="BackgroundImageFix"/>
<feBlend mode="normal" in="SourceGraphic" in2="BackgroundImageFix" result="shape"/>
<feGaussianBlur stdDeviation="2" result="effect1_foregroundBlur"/>
</filter>
<filter id="filter13_f" x="181.442" y="123.248" width="34.8696" height="23.1405" filterUnits="userSpaceOnUse" color-interpolation-filters="sRGB">
<feFlood flood-opacity="0" result="BackgroundImageFix"/>
<feBlend mode="normal" in="SourceGraphic" in2="BackgroundImageFix" result="shape"/>
<feGaussianBlur stdDeviation="2" result="effect1_foregroundBlur"/>
</filter>
<filter id="filter14_f" x="185.044" y="123.903" width="31.5696" height="18.9789" filterUnits="userSpaceOnUse" color-interpolation-filters="sRGB">
<feFlood flood-opacity="0" result="BackgroundImageFix"/>
<feBlend mode="normal" in="SourceGraphic" in2="BackgroundImageFix" result="shape"/>
<feGaussianBlur stdDeviation="2" result="effect1_foregroundBlur"/>
</filter>
<filter id="filter15_f" x="154.002" y="118.69" width="20.7101" height="35.6333" filterUnits="userSpaceOnUse" color-interpolation-filters="sRGB">
<feFlood flood-opacity="0" result="BackgroundImageFix"/>
<feBlend mode="normal" in="SourceGraphic" in2="BackgroundImageFix" result="shape"/>
<feGaussianBlur stdDeviation="2" result="effect1_foregroundBlur"/>
</filter>
<filter id="filter16_f" x="159.009" y="119.179" width="16.0213" height="33.9252" filterUnits="userSpaceOnUse" color-interpolation-filters="sRGB">
<feFlood flood-opacity="0" result="BackgroundImageFix"/>
<feBlend mode="normal" in="SourceGraphic" in2="BackgroundImageFix" result="shape"/>
<feGaussianBlur stdDeviation="2" result="effect1_foregroundBlur"/>
</filter>
<filter id="filter17_f" x="334.606" y="135.089" width="33.816" height="26.3193" filterUnits="userSpaceOnUse" color-interpolation-filters="sRGB">
<feFlood flood-opacity="0" result="BackgroundImageFix"/>
<feBlend mode="normal" in="SourceGraphic" in2="BackgroundImageFix" result="shape"/>
<feGaussianBlur stdDeviation="2" result="effect1_foregroundBlur"/>
</filter>
<filter id="filter18_f" x="338.868" y="135.763" width="30.2479" height="22.4741" filterUnits="userSpaceOnUse" color-interpolation-filters="sRGB">
<feFlood flood-opacity="0" result="BackgroundImageFix"/>
<feBlend mode="normal" in="SourceGraphic" in2="BackgroundImageFix" result="shape"/>
<feGaussianBlur stdDeviation="2" result="effect1_foregroundBlur"/>
</filter>
<filter id="filter19_f" x="490.981" y="157.283" width="51.891" height="95.1397" filterUnits="userSpaceOnUse" color-interpolation-filters="sRGB">
<feFlood flood-opacity="0" result="BackgroundImageFix"/>
<feBlend mode="normal" in="SourceGraphic" in2="BackgroundImageFix" result="shape"/>
<feGaussianBlur stdDeviation="2" result="effect1_foregroundBlur"/>
</filter>
<filter id="filter20_f" x="521.064" y="152.552" width="53.1476" height="107.577" filterUnits="userSpaceOnUse" color-interpolation-filters="sRGB">
<feFlood flood-opacity="0" result="BackgroundImageFix"/>
<feBlend mode="normal" in="SourceGraphic" in2="BackgroundImageFix" result="shape"/>
<feGaussianBlur stdDeviation="2" result="effect1_foregroundBlur"/>
</filter>
<filter id="filter21_f" x="458.941" y="152.552" width="53.2046" height="107.905" filterUnits="userSpaceOnUse" color-interpolation-filters="sRGB">
<feFlood flood-opacity="0" result="BackgroundImageFix"/>
<feBlend mode="normal" in="SourceGraphic" in2="BackgroundImageFix" result="shape"/>
<feGaussianBlur stdDeviation="2" result="effect1_foregroundBlur"/>
</filter>
<filter id="filter22_f" x="607.901" y="124.866" width="23.2464" height="23.3511" filterUnits="userSpaceOnUse" color-interpolation-filters="sRGB">
<feFlood flood-opacity="0" result="BackgroundImageFix"/>
<feBlend mode="normal" in="SourceGraphic" in2="BackgroundImageFix" result="shape"/>
<feGaussianBlur stdDeviation="1.5" result="effect1_foregroundBlur"/>
</filter>
<filter id="filter23_f" x="404.95" y="129.984" width="21.9457" height="22.4769" filterUnits="userSpaceOnUse" color-interpolation-filters="sRGB">
<feFlood flood-opacity="0" result="BackgroundImageFix"/>
<feBlend mode="normal" in="SourceGraphic" in2="BackgroundImageFix" result="shape"/>
<feGaussianBlur stdDeviation="1.5" result="effect1_foregroundBlur"/>
</filter>
<filter id="filter24_f" x="451.742" y="336.178" width="56.3897" height="25.7135" filterUnits="userSpaceOnUse" color-interpolation-filters="sRGB">
<feFlood flood-opacity="0" result="BackgroundImageFix"/>
<feBlend mode="normal" in="SourceGraphic" in2="BackgroundImageFix" result="shape"/>
<feGaussianBlur stdDeviation="0.15" result="effect1_foregroundBlur"/>
</filter>
<filter id="filter25_f" x="449.751" y="339.597" width="31.7091" height="24.3171" filterUnits="userSpaceOnUse" color-interpolation-filters="sRGB">
<feFlood flood-opacity="0" result="BackgroundImageFix"/>
<feBlend mode="normal" in="SourceGraphic" in2="BackgroundImageFix" result="shape"/>
<feGaussianBlur stdDeviation="1.5" result="effect1_foregroundBlur"/>
</filter>
<filter id="filter26_f" x="545.172" y="334.601" width="56.3892" height="25.7135" filterUnits="userSpaceOnUse" color-interpolation-filters="sRGB">
<feFlood flood-opacity="0" result="BackgroundImageFix"/>
<feBlend mode="normal" in="SourceGraphic" in2="BackgroundImageFix" result="shape"/>
<feGaussianBlur stdDeviation="0.15" result="effect1_foregroundBlur"/>
</filter>
<filter id="filter27_f" x="571.839" y="338.021" width="31.7089" height="24.3171" filterUnits="userSpaceOnUse" color-interpolation-filters="sRGB">
<feFlood flood-opacity="0" result="BackgroundImageFix"/>
<feBlend mode="normal" in="SourceGraphic" in2="BackgroundImageFix" result="shape"/>
<feGaussianBlur stdDeviation="1.5" result="effect1_foregroundBlur"/>
</filter>
<filter id="filter28_f" x="472.522" y="61.448" width="32.1213" height="28.478" filterUnits="userSpaceOnUse" color-interpolation-filters="sRGB">
<feFlood flood-opacity="0" result="BackgroundImageFix"/>
<feBlend mode="normal" in="SourceGraphic" in2="BackgroundImageFix" result="shape"/>
<feGaussianBlur stdDeviation="0.5" result="effect1_foregroundBlur"/>
</filter>
<filter id="filter29_f" x="474.192" y="65.0651" width="30.9765" height="27.4651" filterUnits="userSpaceOnUse" color-interpolation-filters="sRGB">
<feFlood flood-opacity="0" result="BackgroundImageFix"/>
<feBlend mode="normal" in="SourceGraphic" in2="BackgroundImageFix" result="shape"/>
<feGaussianBlur stdDeviation="0.25" result="effect1_foregroundBlur"/>
</filter>
<filter id="filter30_f" x="485.057" y="75.3648" width="13.685" height="15.1358" filterUnits="userSpaceOnUse" color-interpolation-filters="sRGB">
<feFlood flood-opacity="0" result="BackgroundImageFix"/>
<feBlend mode="normal" in="SourceGraphic" in2="BackgroundImageFix" result="shape"/>
<feGaussianBlur stdDeviation="1" result="effect1_foregroundBlur"/>
</filter>
<filter id="filter31_f" x="480.521" y="72.1887" width="10.3816" height="10.3519" filterUnits="userSpaceOnUse" color-interpolation-filters="sRGB">
<feFlood flood-opacity="0" result="BackgroundImageFix"/>
<feBlend mode="normal" in="SourceGraphic" in2="BackgroundImageFix" result="shape"/>
<feGaussianBlur stdDeviation="0.5" result="effect1_foregroundBlur"/>
</filter>
<filter id="filter32_f" x="534.625" y="61.8699" width="31.1193" height="27.1969" filterUnits="userSpaceOnUse" color-interpolation-filters="sRGB">
<feFlood flood-opacity="0" result="BackgroundImageFix"/>
<feBlend mode="normal" in="SourceGraphic" in2="BackgroundImageFix" result="shape"/>
<feGaussianBlur stdDeviation="0.5" result="effect1_foregroundBlur"/>
</filter>
<filter id="filter33_f" x="533.57" y="65.412" width="30.3147" height="26.001" filterUnits="userSpaceOnUse" color-interpolation-filters="sRGB">
<feFlood flood-opacity="0" result="BackgroundImageFix"/>
<feBlend mode="normal" in="SourceGraphic" in2="BackgroundImageFix" result="shape"/>
<feGaussianBlur stdDeviation="0.25" result="effect1_foregroundBlur"/>
</filter>
<filter id="filter34_f" x="541.49" y="75.365" width="13.685" height="15.1358" filterUnits="userSpaceOnUse" color-interpolation-filters="sRGB">
<feFlood flood-opacity="0" result="BackgroundImageFix"/>
<feBlend mode="normal" in="SourceGraphic" in2="BackgroundImageFix" result="shape"/>
<feGaussianBlur stdDeviation="1" result="effect1_foregroundBlur"/>
</filter>
<filter id="filter35_f" x="536.955" y="72.1891" width="10.3816" height="10.3519" filterUnits="userSpaceOnUse" color-interpolation-filters="sRGB">
<feFlood flood-opacity="0" result="BackgroundImageFix"/>
<feBlend mode="normal" in="SourceGraphic" in2="BackgroundImageFix" result="shape"/>
<feGaussianBlur stdDeviation="0.5" result="effect1_foregroundBlur"/>
</filter>
<filter id="filter36_f" x="510.344" y="91.5767" width="13.5375" height="7.49532" filterUnits="userSpaceOnUse" color-interpolation-filters="sRGB">
<feFlood flood-opacity="0" result="BackgroundImageFix"/>
<feBlend mode="normal" in="SourceGraphic" in2="BackgroundImageFix" result="shape"/>
<feGaussianBlur stdDeviation="0.25" result="effect1_foregroundBlur"/>
</filter>
<filter id="filter37_f" x="438.59" y="82.3725" width="33.2411" height="45.7362" filterUnits="userSpaceOnUse" color-interpolation-filters="sRGB">
<feFlood flood-opacity="0" result="BackgroundImageFix"/>
<feBlend mode="normal" in="SourceGraphic" in2="BackgroundImageFix" result="shape"/>
<feGaussianBlur stdDeviation="2" result="effect1_foregroundBlur"/>
</filter>
<filter id="filter38_f" x="446.956" y="98.7774" width="17.6754" height="20.9247" filterUnits="userSpaceOnUse" color-interpolation-filters="sRGB">
<feFlood flood-opacity="0" result="BackgroundImageFix"/>
<feBlend mode="normal" in="SourceGraphic" in2="BackgroundImageFix" result="shape"/>
<feGaussianBlur stdDeviation="0.5" result="effect1_foregroundBlur"/>
</filter>
<filter id="filter39_f" x="450.277" y="105.905" width="11.45" height="11.9467" filterUnits="userSpaceOnUse" color-interpolation-filters="sRGB">
<feFlood flood-opacity="0" result="BackgroundImageFix"/>
<feBlend mode="normal" in="SourceGraphic" in2="BackgroundImageFix" result="shape"/>
<feGaussianBlur stdDeviation="0.5" result="effect1_foregroundBlur"/>
</filter>
<filter id="filter40_f" x="561.52" y="82.329" width="33.8643" height="46.6817" filterUnits="userSpaceOnUse" color-interpolation-filters="sRGB">
<feFlood flood-opacity="0" result="BackgroundImageFix"/>
<feBlend mode="normal" in="SourceGraphic" in2="BackgroundImageFix" result="shape"/>
<feGaussianBlur stdDeviation="2" result="effect1_foregroundBlur"/>
</filter>
<filter id="filter41_f" x="570.732" y="97.2008" width="15.9097" height="18.6677" filterUnits="userSpaceOnUse" color-interpolation-filters="sRGB">
<feFlood flood-opacity="0" result="BackgroundImageFix"/>
<feBlend mode="normal" in="SourceGraphic" in2="BackgroundImageFix" result="shape"/>
<feGaussianBlur stdDeviation="0.5" result="effect1_foregroundBlur"/>
</filter>
<filter id="filter42_f" x="572.359" y="99.6919" width="11.6568" height="14.3205" filterUnits="userSpaceOnUse" color-interpolation-filters="sRGB">
<feFlood flood-opacity="0" result="BackgroundImageFix"/>
<feBlend mode="normal" in="SourceGraphic" in2="BackgroundImageFix" result="shape"/>
<feGaussianBlur stdDeviation="0.5" result="effect1_foregroundBlur"/>
</filter>
<filter id="filter43_f" x="445.075" y="0" width="143.22" height="101.778" filterUnits="userSpaceOnUse" color-interpolation-filters="sRGB">
<feFlood flood-opacity="0" result="BackgroundImageFix"/>
<feBlend mode="normal" in="SourceGraphic" in2="BackgroundImageFix" result="shape"/>
<feGaussianBlur stdDeviation="1" result="effect1_foregroundBlur"/>
</filter>
<filter id="filter44_f" x="471.19" y="92.8035" width="20.9308" height="15.5249" filterUnits="userSpaceOnUse" color-interpolation-filters="sRGB">
<feFlood flood-opacity="0" result="BackgroundImageFix"/>
<feBlend mode="normal" in="SourceGraphic" in2="BackgroundImageFix" result="shape"/>
<feGaussianBlur stdDeviation="1" result="effect1_foregroundBlur"/>
</filter>
<filter id="filter45_f" x="473.249" y="93.508" width="16.8101" height="14.1143" filterUnits="userSpaceOnUse" color-interpolation-filters="sRGB">
<feFlood flood-opacity="0" result="BackgroundImageFix"/>
<feBlend mode="normal" in="SourceGraphic" in2="BackgroundImageFix" result="shape"/>
<feGaussianBlur stdDeviation="1.5" result="effect1_foregroundBlur"/>
</filter>
<filter id="filter46_f" x="544.946" y="92.8441" width="21.0453" height="12.3128" filterUnits="userSpaceOnUse" color-interpolation-filters="sRGB">
<feFlood flood-opacity="0" result="BackgroundImageFix"/>
<feBlend mode="normal" in="SourceGraphic" in2="BackgroundImageFix" result="shape"/>
<feGaussianBlur stdDeviation="1" result="effect1_foregroundBlur"/>
</filter>
<filter id="filter47_f" x="546.753" y="93.557" width="16.8961" height="13.9956" filterUnits="userSpaceOnUse" color-interpolation-filters="sRGB">
<feFlood flood-opacity="0" result="BackgroundImageFix"/>
<feBlend mode="normal" in="SourceGraphic" in2="BackgroundImageFix" result="shape"/>
<feGaussianBlur stdDeviation="1.5" result="effect1_foregroundBlur"/>
</filter>
<linearGradient id="paint0_linear" x1="553.764" y1="245.655" x2="553.764" y2="167.591" gradientUnits="userSpaceOnUse">
<stop stop-color="#054F72"/>
<stop offset="1" stop-color="#054F72" stop-opacity="0"/>
</linearGradient>
<linearGradient id="paint1_linear" x1="553.238" y1="243.959" x2="553.238" y2="179.137" gradientUnits="userSpaceOnUse">
<stop stop-color="#59859A"/>
<stop offset="1" stop-color="#054F72" stop-opacity="0"/>
</linearGradient>
<linearGradient id="paint2_linear" x1="542.79" y1="248.021" x2="557.847" y2="199.183" gradientUnits="userSpaceOnUse">
<stop stop-color="#97B4C1"/>
<stop offset="1" stop-color="#054F72" stop-opacity="0"/>
</linearGradient>
<linearGradient id="paint3_linear" x1="492.629" y1="263.792" x2="491.836" y2="182.573" gradientUnits="userSpaceOnUse">
<stop stop-color="#1F85B6"/>
<stop offset="1" stop-color="#1F85B6" stop-opacity="0"/>
</linearGradient>
<linearGradient id="paint4_linear" x1="494.042" y1="260.604" x2="493.436" y2="197.137" gradientUnits="userSpaceOnUse">
<stop stop-color="#3F8EB4"/>
<stop offset="1" stop-color="#1F85B6" stop-opacity="0"/>
</linearGradient>
<linearGradient id="paint5_linear" x1="498.256" y1="258.565" x2="497.778" y2="208.821" gradientUnits="userSpaceOnUse">
<stop stop-color="#4D849E"/>
<stop offset="1" stop-color="#1F85B6" stop-opacity="0"/>
</linearGradient>
</defs>
</svg>
