<svg width="696" height="520" viewBox="0 0 696 520" fill="none" xmlns="http://www.w3.org/2000/svg">
<path d="M23.2252 340.805C34.8406 371.868 62.3536 392.916 10.8235 429.241C-53.5891 474.646 219.629 561.762 419.202 495.237C618.776 428.713 666.821 434.521 676.061 351.629C663.301 340.365 637.044 310.394 564.395 323.91C491.746 337.426 173.345 340.805 23.2252 340.805Z" fill="#A2C0DA"/>
<path d="M474.646 366.941H653.101L650.989 391.228C643.334 406.539 537.686 437.901 513.188 431.354C488.691 424.807 474.646 375.037 474.646 366.941Z" fill="#B8E8A3"/>
<path d="M509.492 373.276H650.989L649.314 389.156C631.19 409.97 565.875 416.89 546.45 412.61C527.026 408.329 509.492 378.569 509.492 373.276Z" fill="#94D07E"/>
<path d="M531.141 366.94H653.102L651.659 380.604C627.232 395.187 577.714 406.79 560.971 403.107C544.228 399.423 531.141 371.495 531.141 366.94Z" fill="#79E451"/>
<path d="M481.51 369.581L484.15 373.012L529.027 372.22L481.51 369.581Z" fill="#5BBA52"/>
<path d="M488.111 377.5L548.3 375.124C530.437 378.028 494.605 383.73 494.183 383.308C493.761 382.885 489.959 379.26 488.111 377.5Z" fill="#5BBA52"/>
<path d="M512.133 383.402L515.567 386.038L558.727 373.715L512.133 383.402Z" fill="#5BBA52"/>
<path d="M520.549 389.355L578.096 371.558C561.583 378.964 528.429 393.702 527.912 393.403C527.395 393.104 522.788 390.579 520.549 389.355Z" fill="#5BBA52"/>
<path d="M225.445 366.941H37.4873L39.7117 391.228C47.7749 406.539 159.048 437.901 184.851 431.354C210.653 424.807 225.445 375.037 225.445 366.941Z" fill="#B8E8A3"/>
<path d="M188.743 373.276H39.7114L41.4751 389.156C60.5647 409.97 129.358 416.89 149.817 412.61C170.276 408.329 188.743 378.569 188.743 373.276Z" fill="#94D07E"/>
<path d="M165.943 366.94H37.4868L39.007 380.604C64.7352 395.187 116.89 406.79 134.524 403.107C152.159 399.423 165.943 371.495 165.943 366.94Z" fill="#79E451"/>
<path d="M218.215 369.581L215.434 373.012L168.167 372.22L218.215 369.581Z" fill="#5BBA52"/>
<path d="M211.266 377.5L147.872 375.124C166.686 378.028 204.426 383.73 204.871 383.308C205.315 382.885 209.319 379.26 211.266 377.5Z" fill="#5BBA52"/>
<path d="M185.963 383.402L182.345 386.038L136.887 373.715L185.963 383.402Z" fill="#5BBA52"/>
<path d="M177.099 389.355L116.487 371.558C133.879 378.964 168.8 393.702 169.344 393.403C169.888 393.104 174.741 390.579 177.099 389.355Z" fill="#5BBA52"/>
<path d="M206.727 451.944H22.7041L24.8819 468.832C32.7763 479.478 141.72 501.285 166.982 496.733C192.244 492.181 206.727 457.573 206.727 451.944Z" fill="#B8E8A3"/>
<path d="M170.794 456.349H24.8827L26.6094 467.391C45.2993 481.864 112.652 486.676 132.683 483.7C152.713 480.723 170.794 460.03 170.794 456.349Z" fill="#94D07E"/>
<path d="M148.47 451.943H22.7029L24.1913 461.445C49.3807 471.585 100.444 479.653 117.709 477.091C134.974 474.53 148.47 455.11 148.47 451.943Z" fill="#79E451"/>
<path d="M199.65 453.779L196.928 456.165L150.65 455.614L199.65 453.779Z" fill="#5BBA52"/>
<path d="M192.845 459.286L130.778 457.634C149.198 459.653 186.148 463.618 186.584 463.324C187.019 463.031 190.939 460.51 192.845 459.286Z" fill="#5BBA52"/>
<path d="M168.07 463.39L164.529 465.223L120.022 456.654L168.07 463.39Z" fill="#5BBA52"/>
<path d="M159.393 467.529L100.051 455.154C117.079 460.304 151.268 470.552 151.801 470.344C152.334 470.136 157.085 468.38 159.393 467.529Z" fill="#5BBA52"/>
<rect x="500.523" y="242.867" width="20.5909" height="32.2063" fill="#97C8FF"/>
<rect x="523.225" y="228.083" width="17.4231" height="44.3496" fill="#97C8FF"/>
<rect x="550.682" y="248.674" width="25.8706" height="61.2447" fill="#97C8FF"/>
<path d="M485.211 263.458H563.879" stroke="white" stroke-width="6"/>
<path d="M557.016 262.93V272.433" stroke="white" stroke-width="4"/>
<path d="M538.01 262.402V271.905" stroke="white" stroke-width="4"/>
<path d="M519.002 262.402V271.905" stroke="white" stroke-width="4"/>
<path d="M499.994 262.93V272.433" stroke="white" stroke-width="4"/>
<path d="M467.256 358.825H570.766" stroke="white" stroke-width="6"/>
<path d="M561.734 358.131V370.635" stroke="white" stroke-width="4"/>
<path d="M536.727 357.436V369.941" stroke="white" stroke-width="4"/>
<path d="M511.717 357.436V369.941" stroke="white" stroke-width="4"/>
<path d="M486.707 358.131V370.635" stroke="white" stroke-width="4"/>
<path d="M570.766 358.298H674.276" stroke="white" stroke-width="6"/>
<path d="M665.244 357.604V370.109" stroke="white" stroke-width="4"/>
<path d="M640.236 356.909V369.414" stroke="white" stroke-width="4"/>
<path d="M615.227 356.909V369.414" stroke="white" stroke-width="4"/>
<path d="M590.217 357.604V370.109" stroke="white" stroke-width="4"/>
<path d="M24.2881 359.882H127.798" stroke="white" stroke-width="6"/>
<path d="M118.768 359.188V371.693" stroke="white" stroke-width="4"/>
<path d="M93.7578 358.493V370.998" stroke="white" stroke-width="4"/>
<path d="M68.749 358.493V370.998" stroke="white" stroke-width="4"/>
<path d="M43.7393 359.188V371.693" stroke="white" stroke-width="4"/>
<path d="M127.797 359.354H231.307" stroke="white" stroke-width="6"/>
<path d="M222.275 358.66V371.164" stroke="white" stroke-width="4"/>
<path d="M197.267 357.965V370.469" stroke="white" stroke-width="4"/>
<path d="M172.258 357.965V370.469" stroke="white" stroke-width="4"/>
<path d="M147.248 358.66V371.164" stroke="white" stroke-width="4"/>
<rect x="162.088" y="277.185" width="290.385" height="10.5594" fill="#762827"/>
<path d="M539.324 159.987C539.764 157.964 536.79 151.962 526.652 153.652C526.652 148.372 523.168 138.657 512.397 138.869C503.686 139.039 500.52 145.732 499.2 147.58C498.823 148.108 496.619 149.226 496.294 147.844C495.238 143.356 483.622 131.741 475.439 144.94C475.065 145.543 474.296 146.498 473.855 145.468C473.063 143.62 470.159 139.925 465.936 141.773C461.712 143.62 462.504 145.468 462.504 144.148C462.504 142.036 455.64 125.933 439.009 136.757C430.65 135.613 414.089 138.446 414.722 154.708C411.203 154.532 404.11 156.45 401.787 161.307L539.324 159.987Z" fill="#B8DCEF"/>
<path d="M537.211 158.404C537.65 156.38 534.676 150.379 524.539 152.068C524.539 146.789 521.055 137.074 510.284 137.285C501.572 137.456 498.407 144.149 497.087 145.997C496.71 146.525 494.506 147.642 494.181 146.261C493.125 141.773 481.508 130.157 473.326 143.357C472.952 143.96 472.183 144.914 471.742 143.885C470.95 142.037 468.046 138.341 463.822 140.189C459.599 142.037 460.391 143.885 460.391 142.565C460.391 140.453 453.527 124.35 436.896 135.173C428.536 134.029 411.976 136.863 412.609 153.124C409.09 152.948 401.997 154.867 399.674 159.724L537.211 158.404Z" fill="#DCF3FF"/>
<path d="M235.544 137.181C236.198 134.173 231.778 125.255 216.713 127.766C216.713 119.919 211.535 105.482 195.529 105.796C182.582 106.05 177.878 115.996 175.916 118.743C175.356 119.527 172.081 121.189 171.598 119.135C170.029 112.466 152.765 95.204 140.605 114.819C140.05 115.715 138.907 117.134 138.252 115.604C137.075 112.858 132.759 107.366 126.482 110.112C120.205 112.858 121.382 115.604 121.382 113.643C121.382 110.504 111.182 86.5735 86.4669 102.658C74.0438 100.958 49.4329 105.169 50.3745 129.335C45.1441 129.074 34.6037 131.924 31.1514 139.143L235.544 137.181Z" fill="#B8DCEF"/>
<path d="M241.701 138.523C242.355 135.515 237.935 126.597 222.871 129.107C222.871 121.261 217.692 106.824 201.686 107.138C188.74 107.392 184.035 117.338 182.074 120.084C181.513 120.869 178.238 122.53 177.755 120.477C176.186 113.808 158.923 96.5458 146.763 116.161C146.207 117.057 145.064 118.476 144.409 116.946C143.232 114.2 138.917 108.708 132.64 111.454C126.363 114.2 127.54 116.946 127.54 114.984C127.54 111.846 117.34 87.9153 92.6241 104C80.201 102.3 55.5902 106.511 56.5317 130.677C51.3014 130.415 40.7609 133.266 37.3086 140.485L241.701 138.523Z" fill="#DCF3FF"/>
<path d="M585.588 40.0341C586.242 37.0264 581.822 28.1079 566.757 30.6187C566.757 22.7725 561.579 8.33549 545.573 8.64934C532.626 8.90318 527.922 18.8494 525.96 21.5956C525.4 22.3801 522.125 24.0415 521.642 21.9878C520.073 15.3188 502.809 -1.94293 490.649 17.6724C490.094 18.5685 488.951 19.987 488.296 18.4571C487.119 15.711 482.803 10.2188 476.526 12.965C470.249 15.7111 471.426 18.4572 471.426 16.4956C471.426 13.3573 461.226 -10.5735 436.511 5.51118C424.088 3.8112 399.477 8.02187 400.418 32.1881C395.188 31.9265 384.648 34.7773 381.195 41.9958L585.588 40.0341Z" fill="#B8DCEF"/>
<path d="M591.746 41.3759C592.4 38.3682 587.98 29.4497 572.915 31.9605C572.915 24.1143 567.737 9.67729 551.731 9.99113C538.785 10.245 534.08 20.1912 532.118 22.9374C531.558 23.7219 528.283 25.3833 527.8 23.3296C526.231 16.6606 508.967 -0.601131 496.808 19.0142C496.252 19.9103 495.109 21.3288 494.454 19.7989C493.277 17.0528 488.961 11.5606 482.685 14.3068C476.408 17.0529 477.584 19.799 477.584 17.8374C477.584 14.699 467.384 -9.23168 442.669 6.85298C430.246 5.153 405.635 9.36367 406.577 33.5299C401.346 33.2683 390.806 36.1191 387.354 43.3376L591.746 41.3759Z" fill="#DCF3FF"/>
<rect x="161.56" y="186.902" width="288.273" height="82.3636" fill="#5BB5FF"/>
<path d="M449.832 187.431V201.158L161.56 199.415V187.431H449.832Z" fill="#3486FF"/>
<path d="M449.568 227.292L161.56 198.518V217.525L449.568 243.659V227.292Z" fill="#5BB5FF" fill-opacity="0.7"/>
<path d="M308.865 187.43L377.237 268.474H281.938L210.662 187.43H308.865Z" fill="#91D4FF" fill-opacity="0.5"/>
<path d="M343.974 187.43L411.819 268.474H380.14L311.504 187.43H343.974Z" fill="#91D4FF" fill-opacity="0.5"/>
<path d="M449.832 257.915H437.485V264.778H427.554V256.331H414.939V266.098H408.497V270.586H407.423V266.89H403.129V257.915H394.808V261.346H393.198V266.098H379.777V261.346H366.357V266.098H245.304V251.315H232.151V253.163H224.099V260.026H211.484V253.955H205.31V255.011H198.6V265.042H192.964V260.026H184.374V266.098H179.543V259.235H171.491V261.082H161.56V267.946V279.297H449.832V257.915Z" fill="#1687F0"/>
<path d="M165.269 268.738H449.832" stroke="black"/>
<path d="M161.561 270.85L161.561 223.861L449.834 270.85L161.561 270.85Z" fill="#C5DAFA" fill-opacity="0.5"/>
<path d="M449.569 204.325V236.267L162.616 204.325H449.569Z" fill="#A7CAFD" fill-opacity="0.5"/>
<path d="M388.588 186.902V269.265" stroke="white" stroke-width="4"/>
<path d="M222.275 186.902V269.265" stroke="white" stroke-width="4"/>
<path d="M388.325 220.165H222.014" stroke="white" stroke-width="3"/>
<path d="M449.833 208.021H388.061" stroke="white" stroke-width="5"/>
<path d="M222.277 208.021H160.504" stroke="white" stroke-width="5"/>
<path d="M222.277 251.315H160.504" stroke="white" stroke-width="4"/>
<path d="M449.833 251.315H388.061" stroke="white" stroke-width="4"/>
<path d="M305.168 184.791V247.883" stroke="white" stroke-width="6"/>
<path d="M481.51 186.374L450.096 184.262V189.013H161.559V184.526L129.881 186.374L305.96 156.807L481.51 186.374Z" fill="#FFD1CF"/>
<path d="M410.234 173.174V189.013" stroke="#F7AEAB" stroke-width="4"/>
<path d="M184.79 176.343V189.014" stroke="#F7AEAB" stroke-width="4"/>
<path d="M353.742 164.728V189.014" stroke="#F7AEAB" stroke-width="4"/>
<path d="M241.811 167.367V188.222" stroke="#F7AEAB" stroke-width="4"/>
<path d="M480.982 186.11L306.223 158.92L132.521 186.11V184.526L306.223 153.112L480.982 184.79V186.11Z" fill="#444C5F"/>
<path d="M162.087 188.486H449.568" stroke="#6F7480" stroke-width="3"/>
<rect x="190.598" y="181.622" width="12.1434" height="16.8951" fill="#FFD99E"/>
<rect x="246.562" y="181.622" width="12.1434" height="16.8951" fill="#77D5FF"/>
<rect x="359.549" y="181.622" width="12.1434" height="16.8951" fill="#FF6A67"/>
<rect x="415.514" y="181.622" width="12.1434" height="16.8951" fill="#BDE791"/>
<circle cx="306.489" cy="181.359" r="16.6311" fill="white"/>
<circle cx="306.489" cy="181.359" r="15.1311" stroke="#5A507C" stroke-width="3"/>
<circle cx="306.488" cy="181.358" r="13.7692" stroke="#6A77A6" stroke-width="1.5"/>
<path d="M314.936 181.623H317.047" stroke="black" stroke-width="2"/>
<path d="M296.193 186.374H298.305" stroke="black" stroke-width="2"/>
<path d="M305.959 170.007V181.622L312.559 188.75" stroke="black" stroke-width="2"/>
<path d="M306.223 181.622L298.039 173.967" stroke="#FF6C6E"/>
<path d="M371.036 279.56L376.446 254.746H234.422L239.562 279.56H371.036Z" fill="#625540"/>
<path d="M369.319 277.448L374.598 252.105H236.006L241.022 277.448H369.319Z" fill="#FFDA9E"/>
<path d="M357.967 251.842V279.561" stroke="#CE703A" stroke-width="4"/>
<path d="M252.9 252.106V277.449" stroke="#CE703A" stroke-width="4"/>
<rect x="355.326" y="275.337" width="5.80769" height="10.0315" fill="white"/>
<rect x="249.732" y="275.337" width="5.80769" height="10.0315" fill="white"/>
<path d="M373.278 259.234H367.999L365.887 271.377H370.638L373.278 259.234Z" fill="#C7E18E"/>
<path d="M236.797 256.858H244.452V270.849H239.701L236.797 256.858Z" fill="#FF6D75"/>
<path d="M345.292 252.106C332.579 242.245 298.837 230.164 265.57 252.106L345.292 252.106Z" fill="#C0E48F"/>
<rect x="267.154" y="287.217" width="76.028" height="53.8531" fill="#4F1B1A"/>
<rect x="200.63" y="287.745" width="66.5245" height="53.8531" fill="#4F1B1A"/>
<rect x="347.406" y="287.745" width="66.5245" height="53.8531" fill="#4F1B1A"/>
<rect x="350.574" y="298.304" width="57.021" height="39.5979" fill="#9C5430"/>
<rect x="354.27" y="304.64" width="12.1434" height="29.5664" fill="#6999EB"/>
<rect x="367.998" y="304.64" width="7.39161" height="29.5664" fill="#6999EB"/>
<rect x="382.252" y="304.64" width="21.1189" height="29.5664" fill="#6999EB"/>
<rect x="354.27" y="317.839" width="12.1434" height="20.0629" fill="#A3DEFF"/>
<rect x="367.998" y="317.839" width="7.39161" height="20.0629" fill="#A3DEFF"/>
<rect x="382.252" y="317.839" width="21.1189" height="20.0629" fill="#A3DEFF"/>
<rect x="262.402" y="298.304" width="19.535" height="39.5979" fill="#9C5430"/>
<rect x="262.459" y="304.64" width="16.2302" height="29.5664" fill="#6999EB"/>
<rect x="262.459" y="317.839" width="16.2302" height="20.0629" fill="#A3DEFF"/>
<path d="M439.009 285.104L439.537 336.318L484.679 334.734V341.597H410.499V290.384H349.518V341.597H339.75V290.384H269.002V341.597H258.707V290.384H201.158V341.597H127.77V334.47H171.591L170.007 285.104H439.009Z" fill="#D57547"/>
<rect x="427.129" y="299.36" width="13.1993" height="29.5664" fill="#FF6D6B"/>
<rect x="175.287" y="299.36" width="12.1434" height="29.5664" fill="#FFDD9D"/>
<rect x="267.154" y="299.36" width="3.16783" height="39.5979" fill="#6AC9FF"/>
<rect x="347.406" y="302" width="3.16783" height="39.5979" fill="#C0D985"/>
<rect x="201.686" y="299.36" width="56.493" height="39.5979" fill="#9C5430"/>
<rect x="205.348" y="305.696" width="12.0309" height="29.5664" fill="#6999EB"/>
<rect x="218.947" y="305.696" width="7.32317" height="29.5664" fill="#6999EB"/>
<rect x="233.072" y="305.696" width="20.9233" height="29.5664" fill="#6999EB"/>
<rect x="205.348" y="318.895" width="12.0309" height="20.0629" fill="#A3DEFF"/>
<rect x="218.947" y="318.895" width="7.32317" height="20.0629" fill="#A3DEFF"/>
<rect x="233.072" y="318.895" width="20.9233" height="20.0629" fill="#A3DEFF"/>
<rect x="282.992" y="298.304" width="57.021" height="39.5979" fill="#9C5430"/>
<rect x="286.688" y="304.64" width="32.2063" height="36.4301" fill="#6999EB"/>
<rect x="324.174" y="304.64" width="11.6154" height="29.5664" fill="#6999EB"/>
<path d="M286.688 315.199L307.806 308.6V313.351L318.894 310.448V334.206H286.688V315.199Z" fill="#A3DEFF"/>
<rect x="324.174" y="317.839" width="11.6154" height="20.0629" fill="#A3DEFF"/>
<path d="M300.941 319.423V330.247" stroke="#3676CF" stroke-width="3"/>
<path d="M304.639 319.687V330.51" stroke="#3676CF" stroke-width="3"/>
<rect x="492.596" y="274.018" width="65.4685" height="58.6049" fill="#FFC9BC"/>
<rect x="495.766" y="282.993" width="62.3007" height="40.6538" fill="#68C5FF"/>
<rect x="495.766" y="282.993" width="62.3007" height="14.2552" fill="#2C78FF" fill-opacity="0.8"/>
<rect x="496.293" y="319.423" width="61.7727" height="3.6958" fill="#4BA2FF" fill-opacity="0.7"/>
<rect x="495.766" y="282.993" width="62.3007" height="3.6958" fill="#6A8FC7" fill-opacity="0.7"/>
<path d="M524.436 283.521L505.268 323.118H534.938L554.369 283.521H524.436Z" fill="#6ECBFF" fill-opacity="0.5"/>
<path d="M543.283 283.521V323.118" stroke="white" stroke-width="3"/>
<rect x="495.766" y="282.993" width="6.33566" height="40.1259" fill="#6ECBFF" fill-opacity="0.6"/>
<path d="M496.293 312.559H557.802" stroke="white" stroke-opacity="0.8" stroke-width="4"/>
<rect x="472.006" y="272.961" width="10.5594" height="41.7098" fill="#FFC9BE"/>
<path d="M480.718 194.293H449.04V282.729H438.744V307.807H480.718V284.841H460.655V208.021H480.718V194.293Z" fill="#AD5B35"/>
<path d="M482.566 274.017V334.998H493.126V274.017H482.566Z" fill="#A85332"/>
<path d="M584.2 342.918V332.622H438.744V336.846H480.454V342.918H584.2Z" fill="#0F5184"/>
<rect x="447.189" y="294.08" width="24.8147" height="8.97552" fill="#FFDEA3"/>
<rect x="440.328" y="303.056" width="38.542" height="4.75175" fill="#264576"/>
<rect x="460.391" y="208.021" width="20.3428" height="76.5559" fill="#77D2FF"/>
<path d="M480.237 208.021V214.531L465.848 219.999L463.616 283.015H461.383V209.844L480.237 208.021Z" fill="#388FFF"/>
<path d="M480.981 234.582H461.383" stroke="white" stroke-width="4"/>
<path d="M480.982 284.312H459.863" stroke="black" stroke-width="3"/>
<path d="M558.066 274.018H478.342" stroke="black" stroke-width="6"/>
<rect x="438.744" y="307.808" width="43.8217" height="26.3986" fill="#FFC9BE"/>
<rect x="452.471" y="307.808" width="14.7832" height="30.6224" fill="#E6F5FF"/>
<path d="M452.471 307.808V314.143L467.254 317.575V307.808H452.471Z" fill="#B7CFFF"/>
<rect width="67.7261" height="58.6049" transform="matrix(-1 0 0 1 117.465 272.434)" fill="#FFC9BC"/>
<rect width="64.449" height="40.6538" transform="matrix(-1 0 0 1 114.188 281.409)" fill="#68C5FF"/>
<rect width="64.449" height="14.2552" transform="matrix(-1 0 0 1 114.188 281.409)" fill="#2C78FF" fill-opacity="0.8"/>
<rect width="63.9028" height="3.6958" transform="matrix(-1 0 0 1 113.644 317.84)" fill="#4BA2FF" fill-opacity="0.7"/>
<rect width="64.449" height="3.6958" transform="matrix(-1 0 0 1 114.188 281.409)" fill="#6A8FC7" fill-opacity="0.7"/>
<path d="M84.5276 281.937L104.356 321.535H73.6624L53.5619 281.937H84.5276Z" fill="#6ECBFF" fill-opacity="0.5"/>
<path d="M65.0312 281.937V321.535" stroke="white" stroke-width="3"/>
<rect width="6.55413" height="40.1259" transform="matrix(-1 0 0 1 114.188 281.409)" fill="#6ECBFF" fill-opacity="0.6"/>
<path d="M113.644 310.976H50.0138" stroke="white" stroke-opacity="0.8" stroke-width="4"/>
<rect width="10.9236" height="41.7098" transform="matrix(-1 0 0 1 138.766 271.377)" fill="#FFC9BE"/>
<path d="M129.753 192.71H162.523V281.145H173.174V306.224H129.753V283.257H150.507V206.437H129.753V192.71Z" fill="#AD5B35"/>
<path d="M127.841 272.434V333.414H116.917V272.434H127.841Z" fill="#A85332"/>
<path d="M22.7028 341.334V331.039H173.175V335.262H130.027V341.334H22.7028Z" fill="#0F5184"/>
<rect width="25.6704" height="8.97552" transform="matrix(-1 0 0 1 164.437 292.497)" fill="#FFDEA3"/>
<rect width="39.871" height="4.75175" transform="matrix(-1 0 0 1 171.536 301.472)" fill="#264576"/>
<rect width="21.0443" height="76.5559" transform="matrix(-1 0 0 1 150.78 206.438)" fill="#77D2FF"/>
<path d="M130.251 206.437V212.947L145.136 218.415L147.446 281.431H149.756V208.26L130.251 206.437Z" fill="#388FFF"/>
<path d="M129.481 232.998H149.756" stroke="white" stroke-width="4"/>
<path d="M129.481 282.729H151.328" stroke="black" stroke-width="3"/>
<path d="M49.7391 272.434H132.212" stroke="black" stroke-width="6"/>
<rect width="45.3328" height="26.3986" transform="matrix(-1 0 0 1 173.175 306.224)" fill="#FFC9BE"/>
<rect width="15.293" height="30.6224" transform="matrix(-1 0 0 1 158.974 306.224)" fill="#E6F5FF"/>
<path d="M158.974 306.224V312.56L143.681 315.992V306.224H158.974Z" fill="#B7CFFF"/>
<rect x="410.762" y="338.43" width="71.8042" height="4.22378" fill="#4F1B1A"/>
<rect x="222.275" y="277.185" width="213.829" height="2.11189" fill="#264576"/>
<rect x="107.707" y="337.901" width="93.979" height="3.6958" fill="#4F1B1A"/>
<path d="M551.425 317.053C548.046 326.345 556.881 331.132 561.721 332.364H596.566C614.095 325.817 603.87 314.149 596.566 309.133C598.889 299.63 589.791 300.598 584.951 302.269C585.303 300.51 584.581 296.99 578.879 296.99C575.045 296.99 572.747 300.65 571.519 304.278C571.192 306.069 570.792 307.787 570.432 309.133C570.576 307.807 570.92 306.046 571.519 304.278C572.387 299.515 572.734 294.239 570.432 294.086C567.264 293.875 566.648 299.454 566.736 302.269C565.064 299.278 560.77 294.033 556.968 296.99C553.166 299.946 558.552 309.133 561.721 313.357C559.697 310.717 554.804 307.76 551.425 317.053Z" fill="#96D17C"/>
<path d="M551.345 318.897C548.327 327.226 556.217 331.518 560.54 332.622H591.659C607.314 326.753 598.182 316.294 591.659 311.797C593.734 303.278 585.608 304.146 581.286 305.645C581.6 304.067 580.956 300.912 575.863 300.912C572.439 300.912 570.387 304.193 569.29 307.445C568.998 309.05 568.641 310.591 568.319 311.797C568.448 310.609 568.755 309.03 569.29 307.445C570.065 303.176 570.375 298.447 568.319 298.309C565.49 298.12 564.94 303.121 565.018 305.645C563.525 302.963 559.691 298.262 556.295 300.912C552.9 303.562 557.71 311.797 560.54 315.584C558.732 313.217 554.363 310.567 551.345 318.897Z" fill="#5F9945"/>
<path d="M553.85 321.641C551.442 328.305 557.737 331.738 561.186 332.622H586.016C598.506 327.927 591.22 319.559 586.016 315.962C587.671 309.147 581.188 309.841 577.739 311.04C577.99 309.778 577.476 307.254 573.413 307.254C570.681 307.254 569.043 309.878 568.168 312.48C567.935 313.764 567.65 314.996 567.393 315.962C567.496 315.011 567.741 313.748 568.168 312.48C568.786 309.065 569.034 305.281 567.393 305.171C565.136 305.02 564.697 309.021 564.76 311.04C563.568 308.894 560.509 305.133 557.8 307.254C555.091 309.374 558.928 315.962 561.186 318.991C559.744 317.098 556.258 314.978 553.85 321.641Z" fill="#76D14E"/>
<path d="M457.447 398.888C454.068 408.18 462.902 412.967 467.742 414.199H502.588C520.116 407.653 509.891 395.984 502.588 390.969C504.911 381.465 495.812 382.433 490.972 384.105C491.324 382.345 490.603 378.825 484.901 378.825C481.067 378.825 478.768 382.485 477.54 386.114C477.214 387.904 476.814 389.622 476.453 390.969C476.597 389.642 476.942 387.882 477.54 386.114C478.408 381.35 478.755 376.075 476.453 375.921C473.285 375.71 472.669 381.289 472.757 384.105C471.086 381.113 466.792 375.869 462.99 378.825C459.188 381.782 464.574 390.969 467.742 395.192C465.718 392.552 460.826 389.596 457.447 398.888Z" fill="#96D17C"/>
<path d="M457.366 400.733C454.349 409.062 462.239 413.354 466.561 414.458H497.681C513.336 408.589 504.204 398.13 497.681 393.633C499.756 385.114 491.63 385.982 487.307 387.481C487.622 385.903 486.977 382.748 481.885 382.748C478.461 382.748 476.408 386.029 475.311 389.281C475.02 390.886 474.663 392.427 474.341 393.633C474.469 392.445 474.777 390.866 475.311 389.281C476.087 385.012 476.397 380.282 474.341 380.145C471.511 379.956 470.961 384.957 471.04 387.481C469.547 384.799 465.712 380.098 462.317 382.748C458.921 385.398 463.732 393.633 466.561 397.42C464.753 395.053 460.384 392.403 457.366 400.733Z" fill="#5F9945"/>
<path d="M459.871 403.477C457.464 410.141 463.759 413.574 467.208 414.457H492.037C504.528 409.763 497.242 401.395 492.037 397.798C493.693 390.983 487.209 391.677 483.761 392.876C484.011 391.614 483.497 389.09 479.434 389.09C476.702 389.09 475.064 391.714 474.189 394.316C473.957 395.6 473.672 396.832 473.415 397.798C473.517 396.847 473.763 395.584 474.189 394.316C474.808 390.901 475.055 387.117 473.415 387.007C471.157 386.856 470.718 390.856 470.781 392.876C469.59 390.73 466.53 386.969 463.821 389.09C461.112 391.21 464.95 397.798 467.208 400.827C465.765 398.934 462.279 396.814 459.871 403.477Z" fill="#76D14E"/>
<path d="M498.284 420.007C501.205 429.299 493.567 434.086 489.383 435.318H459.256C444.101 428.771 452.941 417.103 459.256 412.087C457.247 402.584 465.114 403.552 469.298 405.224C468.994 403.464 469.618 399.944 474.548 399.944C477.863 399.944 479.85 403.604 480.912 407.232C481.194 409.023 481.54 410.741 481.851 412.087C481.727 410.761 481.429 409 480.912 407.232C480.161 402.469 479.861 397.193 481.851 397.04C484.59 396.829 485.123 402.408 485.047 405.224C486.492 402.232 490.205 396.987 493.492 399.944C496.779 402.9 492.122 412.087 489.383 416.311C491.133 413.671 495.363 410.715 498.284 420.007Z" fill="#96D17C"/>
<path d="M498.353 421.851C500.963 430.181 494.141 434.472 490.404 435.576H463.498C449.964 429.707 457.859 419.248 463.498 414.752C461.704 406.232 468.73 407.1 472.467 408.599C472.195 407.021 472.752 403.866 477.155 403.866C480.115 403.866 481.89 407.147 482.838 410.399C483.09 412.005 483.399 413.545 483.678 414.752C483.567 413.563 483.301 411.984 482.838 410.399C482.168 406.13 481.9 401.401 483.678 401.263C486.124 401.074 486.599 406.075 486.532 408.599C487.822 405.917 491.138 401.216 494.073 403.866C497.009 406.516 492.85 414.752 490.404 418.538C491.967 416.171 495.744 413.521 498.353 421.851Z" fill="#5F9945"/>
<path d="M496.188 424.596C498.269 431.26 492.826 434.693 489.845 435.576H468.377C457.579 430.881 463.878 422.514 468.377 418.917C466.946 412.101 472.552 412.795 475.533 413.994C475.317 412.732 475.761 410.208 479.274 410.208C481.636 410.208 483.052 412.833 483.809 415.435C484.01 416.719 484.256 417.951 484.478 418.917C484.389 417.966 484.177 416.703 483.809 415.435C483.274 412.019 483.06 408.236 484.478 408.126C486.43 407.974 486.809 411.975 486.755 413.994C487.785 411.849 490.43 408.088 492.773 410.208C495.115 412.328 491.797 418.917 489.845 421.946C491.092 420.052 494.106 417.932 496.188 424.596Z" fill="#76D14E"/>
<path d="M66.9315 397.304C69.8529 406.596 62.2146 411.383 58.0302 412.615H27.9034C12.7485 406.069 21.5889 394.4 27.9034 389.385C25.895 379.881 33.7615 380.849 37.9459 382.521C37.6416 380.761 38.2654 377.241 43.1953 377.241C46.5101 377.241 48.4972 380.901 49.5591 384.53C49.8413 386.32 50.1871 388.038 50.4989 389.385C50.3743 388.058 50.0765 386.298 49.5591 384.53C48.8084 379.766 48.5084 374.491 50.4989 374.337C53.2378 374.126 53.7703 379.705 53.6942 382.521C55.1396 379.529 58.852 374.285 62.139 377.241C65.4261 380.198 60.7694 389.385 58.0302 393.608C59.78 390.969 64.01 388.012 66.9315 397.304Z" fill="#96D17C"/>
<path d="M66.9999 399.149C69.609 407.478 62.7874 411.77 59.0504 412.874H32.1446C18.61 407.005 26.5052 396.546 32.1446 392.049C30.3509 383.53 37.3764 384.398 41.1134 385.897C40.8416 384.319 41.3988 381.164 45.8016 381.164C48.7619 381.164 50.5366 384.445 51.485 387.697C51.737 389.302 52.0459 390.843 52.3243 392.049C52.213 390.861 51.9471 389.282 51.485 387.697C50.8146 383.428 50.5466 378.698 52.3243 378.561C54.7703 378.372 55.2459 383.373 55.178 385.897C56.4688 383.215 59.7843 378.514 62.7199 381.164C65.6555 383.814 61.4967 392.049 59.0504 395.836C60.6131 393.469 64.3909 390.819 66.9999 399.149Z" fill="#5F9945"/>
<path d="M64.836 401.894C66.9177 408.558 61.4749 411.991 58.4932 412.874H37.0259C26.227 408.179 32.5263 399.811 37.0259 396.214C35.5947 389.399 41.2002 390.093 44.1818 391.292C43.9649 390.03 44.4095 387.506 47.9224 387.506C50.2843 387.506 51.7003 390.131 52.457 392.733C52.658 394.017 52.9045 395.249 53.1267 396.214C53.0379 395.263 52.8257 394.001 52.457 392.733C51.9221 389.317 51.7083 385.534 53.1267 385.424C55.0783 385.272 55.4578 389.273 55.4036 391.292C56.4334 389.147 59.0788 385.386 61.421 387.506C63.7633 389.626 60.4451 396.214 58.4932 399.243C59.7401 397.35 62.7542 395.23 64.836 401.894Z" fill="#76D14E"/>
<path d="M47.3953 450.102C50.3168 459.394 42.6784 464.181 38.4941 465.413H8.36731C-6.78765 458.866 2.05274 447.198 8.36731 442.182C6.35882 432.678 14.2254 433.646 18.4097 435.318C18.1054 433.558 18.7293 430.039 23.6592 430.039C26.9739 430.039 28.961 433.698 30.023 437.327C30.3051 439.117 30.651 440.836 30.9628 442.182C30.8382 440.856 30.5404 439.095 30.023 437.327C29.2723 432.564 28.9722 427.288 30.9628 427.135C33.7016 426.924 34.2342 432.502 34.1581 435.318C35.6034 432.326 39.3159 427.082 42.6029 430.039C45.8899 432.995 41.2333 442.182 38.4941 446.406C40.2439 443.766 44.4739 440.809 47.3953 450.102Z" fill="#96D17C"/>
<path d="M47.4658 451.946C50.0749 460.275 43.2532 464.566 39.5162 465.671H12.6105C-0.924168 459.802 6.97104 449.342 12.6105 444.846C10.8167 436.327 17.8422 437.195 21.5792 438.694C21.3074 437.116 21.8646 433.961 26.2674 433.961C29.2277 433.961 31.0024 437.242 31.9508 440.494C32.2028 442.099 32.5117 443.639 32.7901 444.846C32.6788 443.657 32.4129 442.079 31.9508 440.494C31.2804 436.225 31.0124 431.495 32.7901 431.358C35.2361 431.168 35.7118 436.169 35.6438 438.694C36.9346 436.012 40.2501 431.31 43.1857 433.961C46.1213 436.611 41.9625 444.846 39.5162 448.633C41.0789 446.266 44.8567 443.616 47.4658 451.946Z" fill="#5F9945"/>
<path d="M45.2998 454.691C47.3815 461.355 41.9387 464.787 38.9571 465.671H17.4897C6.69083 460.976 12.9902 452.608 17.4897 449.011C16.0586 442.196 21.664 442.89 24.6457 444.089C24.4288 442.827 24.8733 440.303 28.3862 440.303C30.7482 440.303 32.1642 442.927 32.9208 445.53C33.1219 446.814 33.3684 448.046 33.5905 449.011C33.5017 448.06 33.2896 446.798 32.9208 445.53C32.386 442.114 32.1721 438.331 33.5905 438.22C35.5421 438.069 35.9216 442.07 35.8674 444.089C36.8973 441.944 39.5427 438.183 41.8849 440.303C44.2271 442.423 40.909 449.011 38.9571 452.04C40.204 450.147 43.2181 448.027 45.2998 454.691Z" fill="#76D14E"/>
<path d="M149.823 483.364C152.745 492.656 145.106 497.443 140.922 498.675H110.795C95.6401 492.128 104.48 480.46 110.795 475.444C108.787 465.941 116.653 466.909 120.837 468.58C120.533 466.821 121.157 463.301 126.087 463.301C129.402 463.301 131.389 466.961 132.451 470.589C132.733 472.38 133.079 474.098 133.391 475.444C133.266 474.118 132.968 472.357 132.451 470.589C131.7 465.826 131.4 460.55 133.391 460.397C136.129 460.186 136.662 465.765 136.586 468.58C138.031 465.589 141.744 460.344 145.031 463.301C148.318 466.257 143.661 475.444 140.922 479.668C142.672 477.028 146.902 474.071 149.823 483.364Z" fill="#96D17C"/>
<path d="M149.893 485.208C152.502 493.538 145.68 497.829 141.943 498.933H115.037C101.503 493.064 109.398 482.605 115.037 478.108C113.243 469.589 120.269 470.457 124.006 471.956C123.734 470.378 124.291 467.223 128.694 467.223C131.654 467.223 133.429 470.504 134.378 473.756C134.63 475.361 134.938 476.902 135.217 478.108C135.106 476.92 134.84 475.341 134.378 473.756C133.707 469.487 133.439 464.758 135.217 464.62C137.663 464.431 138.139 469.432 138.071 471.956C139.361 469.274 142.677 464.573 145.612 467.223C148.548 469.873 144.389 478.109 141.943 481.895C143.506 479.528 147.283 476.878 149.893 485.208Z" fill="#5F9945"/>
<path d="M147.727 487.953C149.808 494.617 144.365 498.05 141.384 498.933H119.917C109.118 494.238 115.417 485.87 119.917 482.273C118.485 475.458 124.091 476.152 127.072 477.351C126.856 476.089 127.3 473.565 130.813 473.565C133.175 473.565 134.591 476.19 135.348 478.792C135.549 480.076 135.795 481.308 136.017 482.273C135.928 481.322 135.716 480.06 135.348 478.792C134.813 475.376 134.599 471.593 136.017 471.483C137.969 471.331 138.348 475.332 138.294 477.351C139.324 475.206 141.969 471.445 144.312 473.565C146.654 475.685 143.336 482.274 141.384 485.303C142.631 483.409 145.645 481.289 147.727 487.953Z" fill="#76D14E"/>
<path d="M493.876 442.71C490.497 452.002 499.332 456.789 504.172 458.021H539.017C556.546 451.474 546.321 439.806 539.017 434.79C541.34 425.287 532.242 426.255 527.402 427.927C527.754 426.167 527.032 422.647 521.33 422.647C517.496 422.647 515.198 426.307 513.97 429.935C513.643 431.726 513.243 433.444 512.883 434.79C513.027 433.464 513.371 431.703 513.97 429.935C514.838 425.172 515.185 419.897 512.883 419.743C509.715 419.532 509.099 425.111 509.187 427.927C507.515 424.935 503.221 419.69 499.419 422.647C495.618 425.604 501.004 434.79 504.172 439.014C502.148 436.374 497.255 433.418 493.876 442.71Z" fill="#96D17C"/>
<path d="M493.796 444.554C490.778 452.884 498.668 457.175 502.991 458.28H534.111C549.765 452.411 540.633 441.951 534.111 437.455C536.185 428.936 528.059 429.804 523.737 431.303C524.052 429.725 523.407 426.57 518.315 426.57C514.891 426.57 512.838 429.85 511.741 433.103C511.45 434.708 511.092 436.248 510.77 437.455C510.899 436.266 511.207 434.688 511.741 433.103C512.516 428.833 512.826 424.104 510.77 423.967C507.941 423.777 507.391 428.778 507.47 431.303C505.977 428.621 502.142 423.919 498.746 426.57C495.351 429.22 500.161 437.455 502.991 441.241C501.183 438.875 496.814 436.225 493.796 444.554Z" fill="#5F9945"/>
<path d="M496.301 447.299C493.893 453.963 500.189 457.396 503.637 458.279H528.467C540.957 453.584 533.671 445.217 528.467 441.62C530.122 434.804 523.639 435.499 520.19 436.698C520.441 435.435 519.927 432.911 515.864 432.911C513.132 432.911 511.494 435.536 510.619 438.138C510.386 439.422 510.101 440.654 509.844 441.62C509.947 440.669 510.192 439.406 510.619 438.138C511.238 434.722 511.485 430.939 509.844 430.829C507.587 430.677 507.148 434.678 507.211 436.698C506.02 434.552 502.96 430.791 500.251 432.911C497.542 435.032 501.38 441.62 503.637 444.649C502.195 442.756 498.709 440.635 496.301 447.299Z" fill="#76D14E"/>
<path d="M641.181 357.707C637.802 366.999 646.637 371.786 651.476 373.018H686.322C703.851 366.471 693.626 354.803 686.322 349.787C688.645 340.283 679.546 341.251 674.707 342.923C675.059 341.163 674.337 337.644 668.635 337.644C664.801 337.644 662.503 341.303 661.274 344.932C660.948 346.722 660.548 348.441 660.187 349.787C660.332 348.461 660.676 346.7 661.274 344.932C662.143 340.169 662.49 334.893 660.187 334.74C657.02 334.529 656.404 340.107 656.492 342.923C654.82 339.931 650.526 334.687 646.724 337.644C642.922 340.6 648.308 349.787 651.476 354.011C649.453 351.371 644.56 348.414 641.181 357.707Z" fill="#96D17C"/>
<path d="M641.101 359.551C638.083 367.881 645.973 372.172 650.295 373.276H681.415C697.07 367.408 687.938 356.948 681.415 352.452C683.49 343.933 675.364 344.8 671.042 346.299C671.356 344.721 670.712 341.566 665.619 341.566C662.195 341.566 660.143 344.847 659.046 348.1C658.754 349.705 658.397 351.245 658.075 352.452C658.204 351.263 658.511 349.685 659.046 348.1C659.821 343.83 660.131 339.101 658.075 338.963C655.246 338.774 654.696 343.775 654.774 346.299C653.281 343.617 649.447 338.916 646.051 341.566C642.656 344.217 647.466 352.452 650.295 356.238C648.488 353.872 644.118 351.221 641.101 359.551Z" fill="#5F9945"/>
<path d="M643.606 362.296C641.198 368.96 647.493 372.392 650.942 373.276H675.772C688.262 368.581 680.976 360.213 675.772 356.616C677.427 349.801 670.944 350.495 667.495 351.694C667.746 350.432 667.232 347.908 663.168 347.908C660.437 347.908 658.799 350.532 657.924 353.135C657.691 354.419 657.406 355.651 657.149 356.616C657.252 355.665 657.497 354.403 657.924 353.135C658.542 349.719 658.79 345.936 657.149 345.825C654.892 345.674 654.453 349.675 654.515 351.694C653.324 349.549 650.265 345.788 647.556 347.908C644.846 350.028 648.684 356.616 650.942 359.645C649.5 357.752 646.013 355.632 643.606 362.296Z" fill="#76D14E"/>
<path d="M623.23 378.825C619.851 388.117 628.686 392.904 633.525 394.136H668.371C685.9 387.59 675.674 375.921 668.371 370.906C670.694 361.402 661.595 362.37 656.755 364.042C657.107 362.282 656.386 358.762 650.684 358.762C646.85 358.762 644.552 362.422 643.323 366.051C642.997 367.841 642.597 369.559 642.236 370.906C642.38 369.579 642.725 367.819 643.323 366.051C644.191 361.287 644.539 356.012 642.236 355.858C639.068 355.647 638.452 361.226 638.54 364.042C636.869 361.05 632.575 355.806 628.773 358.762C624.971 361.719 630.357 370.906 633.525 375.129C631.501 372.49 626.609 369.533 623.23 378.825Z" fill="#96D17C"/>
<path d="M623.15 380.669C620.132 388.998 628.022 393.29 632.344 394.394H663.464C679.119 388.525 669.987 378.066 663.464 373.569C665.539 365.05 657.413 365.918 653.091 367.417C653.405 365.839 652.761 362.684 647.668 362.684C644.244 362.684 642.192 365.965 641.095 369.217C640.803 370.822 640.446 372.363 640.124 373.569C640.253 372.381 640.56 370.802 641.095 369.217C641.87 364.948 642.18 360.218 640.124 360.081C637.295 359.892 636.745 364.893 636.823 367.417C635.33 364.735 631.495 360.034 628.1 362.684C624.705 365.334 629.515 373.569 632.344 377.356C630.537 374.989 626.167 372.339 623.15 380.669Z" fill="#5F9945"/>
<path d="M625.655 383.414C623.247 390.078 629.542 393.511 632.991 394.394H657.82C670.311 389.699 663.025 381.331 657.82 377.734C659.476 370.919 652.992 371.613 649.544 372.812C649.795 371.55 649.28 369.026 645.217 369.026C642.485 369.026 640.848 371.651 639.972 374.253C639.74 375.537 639.455 376.769 639.198 377.734C639.301 376.783 639.546 375.521 639.972 374.253C640.591 370.837 640.838 367.054 639.198 366.944C636.941 366.792 636.502 370.793 636.564 372.812C635.373 370.667 632.313 366.906 629.604 369.026C626.895 371.146 630.733 377.734 632.991 380.763C631.549 378.87 628.062 376.75 625.655 383.414Z" fill="#76D14E"/>
<path d="M638.011 400.472C634.632 409.764 643.467 414.551 648.307 415.783H683.152C700.681 409.237 690.456 397.568 683.152 392.553C685.475 383.049 676.376 384.017 671.537 385.689C671.889 383.929 671.167 380.409 665.465 380.409C661.631 380.409 659.333 384.069 658.105 387.698C657.778 389.488 657.378 391.206 657.017 392.553C657.162 391.226 657.506 389.466 658.105 387.698C658.973 382.934 659.32 377.659 657.017 377.505C653.85 377.294 653.234 382.873 653.322 385.689C651.65 382.697 647.356 377.453 643.554 380.409C639.752 383.366 645.138 392.553 648.307 396.776C646.283 394.136 641.39 391.18 638.011 400.472Z" fill="#96D17C"/>
<path d="M637.931 402.317C634.913 410.646 642.803 414.937 647.125 416.042H678.245C693.9 410.173 684.768 399.714 678.245 395.217C680.32 386.698 672.194 387.566 667.872 389.065C668.186 387.487 667.542 384.332 662.449 384.332C659.025 384.332 656.973 387.613 655.876 390.865C655.584 392.47 655.227 394.01 654.905 395.217C655.034 394.029 655.341 392.45 655.876 390.865C656.651 386.596 656.961 381.866 654.905 381.729C652.076 381.54 651.526 386.541 651.604 389.065C650.111 386.383 646.277 381.682 642.881 384.332C639.486 386.982 644.296 395.217 647.125 399.004C645.318 396.637 640.949 393.987 637.931 402.317Z" fill="#5F9945"/>
<path d="M640.436 405.061C638.028 411.725 644.323 415.158 647.772 416.041H672.602C685.092 411.347 677.806 402.979 672.602 399.382C674.257 392.567 667.774 393.261 664.325 394.46C664.576 393.198 664.062 390.674 659.999 390.674C657.267 390.674 655.629 393.298 654.754 395.9C654.521 397.184 654.236 398.416 653.979 399.382C654.082 398.431 654.327 397.168 654.754 395.9C655.372 392.484 655.62 388.701 653.979 388.591C651.722 388.44 651.283 392.44 651.346 394.46C650.154 392.314 647.095 388.553 644.386 390.674C641.676 392.794 645.514 399.382 647.772 402.411C646.33 400.518 642.844 398.398 640.436 405.061Z" fill="#76D14E"/>
<path d="M145.456 344.766H565.458L556.482 356.909H131.465L145.456 344.766Z" fill="#9AC9FF"/>
<path d="M337.637 342.653L333.941 380.139" stroke="white" stroke-width="2"/>
<path d="M405.221 345.029L430.827 378.292" stroke="white" stroke-width="2"/>
<path d="M387.004 378.027L412.611 411.29" stroke="white" stroke-width="2"/>
<path d="M443.496 387.003L456.695 405.218" stroke="white" stroke-width="2"/>
<path d="M332.887 390.699L330.511 409.442" stroke="white" stroke-width="2"/>
<path d="M330.176 414.985L327.8 433.728" stroke="white" stroke-width="2"/>
<path d="M225.707 373.804H457.487" stroke="white" stroke-width="2"/>
<path d="M221.486 391.227H460.394" stroke="white" stroke-width="2"/>
<path d="M266.645 392.283L240.491 425.545" stroke="white" stroke-width="2"/>
<path d="M208.021 427.129H275.074" stroke="white" stroke-width="2"/>
<path d="M211.719 465.671H502.895" stroke="white" stroke-width="2"/>
</svg>
